<?xml version="1.0" encoding="UTF-8" standalone="no"?>
<svg
   xmlns:svg="http://www.w3.org/2000/svg"
   xmlns="http://www.w3.org/2000/svg"
   width="800.0"
   height="240.0"

>
    <g transform="scale(0.917684626391498, -0.917684626391498)   translate(295.6969056288032,-108.05125536912335)" stroke-width="1.0896989785392623"  fill="none">
       <!-- hidden lines -->
       <g  stroke="rgb(160,160,160)" fill="none" stroke-dasharray="1.0896989785392623,1.0896989785392623" >
			<path d="M53.14428233805937,69.686117038126 L86.17932481086999,50.49635439613115 " />
			<path d="M60.29951089471382,54.78230586579909 L53.144282338059384,69.686117038126 " />
			<path d="M-16.72571913720029,81.2572757983381 L16.309323335610326,62.06751315634325 " />
			<path d="M53.14428233805937,69.686117038126 L-16.7257191372003,81.25727579833809 " />
			<path d="M-72.75710992095074,30.917534402584415 L-39.72206744814012,11.727771760589569 " />
			<path d="M-16.72571913720029,81.2572757983381 L-72.75710992095074,30.91753440258443 " />
			<path d="M-72.75710992095074,-43.426255134544355 L-39.72206744814012,-62.6160177765392 " />
			<path d="M-72.75710992095074,30.917534402584415 L-72.75710992095074,-43.426255134544355 " />
			<path d="M-16.725719137200315,-85.79170295465428 L16.3093233356103,-104.98146559664913 " />
			<path d="M-72.75710992095074,-43.426255134544355 L-16.725719137200294,-85.79170295465431 " />
			<path d="M-16.725719137200315,-85.79170295465428 L-11.285930017606386,-84.11663876180533 " />

       </g>

       <!-- solid lines -->
       <g  stroke="rgb(0,0,0)" fill="none">
			<path d="M84.23935830566707,4.91737667701118 L117.27440077847768,-14.272385964983666 " />
			<path d="M84.23935830566707,4.91737667701118 L60.29951089471382,54.78230586579909 " />
			<path d="M117.27440077847768,-14.272385964983663 L86.17932481087,50.49635439613116 " />
			<path d="M86.17932481086999,50.49635439613115 L16.309323335610316,62.06751315634324 " />
			<path d="M16.30932333561033,62.06751315634325 L-39.72206744814012,11.727771760589583 " />
			<path d="M-39.72206744814012,11.727771760589572 L-39.72206744814012,-62.616017776539195 " />
			<path d="M-39.72206744814012,-62.616017776539195 L16.309323335610323,-104.98146559664916 " />
			<path d="M53.144282338059355,-64.27676275155923 L86.17932481086997,-83.46652539355408 " />
			<path d="M-11.285930017606386,-84.11663876180533 L53.144282338059355,-64.27676275155923 " />
			<path d="M16.309323335610305,-104.98146559664913 L86.17932481086997,-83.46652539355406 " />
			<path d="M53.144282338059355,-64.27676275155923 L84.23935830566707,4.917376677011191 " />
			<path d="M86.17932481086997,-83.46652539355408 L117.27440077847768,-14.272385964983656 " />
			<path d="M87.22946602577515,-88.1646261895791 L87.35809289157902,-88.1230430435621 L87.48579236485598,-88.0777963951644 L87.61246397839868,-88.02892184206144 L87.73800807366554,-87.97645783617268 L87.86232587918687,-87.92044565340964 L87.98531958827307,-87.86092936120218 L88.10689243596372,-87.79795578382856 L88.22694877515717,-87.73157446557659 L88.34539415186067,-87.66183763176477 L88.46213537950172,-87.58880014765423 L88.5770806122424,-87.51251947528353 L88.6901394172388,-87.43305562826069 L88.8012228457888,-87.35047112454754 L88.91024350331229,-87.26483093727393 L89.0171156181085,-87.17620244362031 L89.12175510883677,-87.0846553718089 L89.22407965066716,-86.99026174624525 L89.32400874004946,-86.89309583085314 L89.42146375804901,-86.79323407064774 L89.51636803219996,-86.69075503159266 L89.60864689682715,-86.58573933878841 L89.69822775178909,-86.47826961304084 L89.7850401195959,-86.36843040585939 L89.86901570085737,-86.25630813293647 L89.95008842801722,-86.14199100616018 L90.02819451733161,-86.0255689642138 L90.10327251905082,-85.90713360181678 L90.17526336576468,-85.7867780976629 L90.24411041887365,-85.66459714111211 L90.30975951314916,-85.54068685769404 L90.37215899934787,-85.41514473348141 L90.43125978484662,-85.28806953839319 " />
			<path d="M90.43125978484662,-85.28806953839317 L121.52633575245433,-16.09393010982275 " />
			<path d="M121.52633575245433,-11.845713564843969 L121.5820913398736,-11.966286813046258 L121.63445786365922,-12.08867437837742 L121.68339412459346,-12.212779972758966 L121.72886162220837,-12.338505956457807 L121.770824585076,-12.465753414904038 L121.80924999895137,-12.59442223651171 L121.8441076327464,-12.72441119144133 L121.87537006231413,-12.855618011242173 L121.90301269202456,-12.987939469311693 L121.92701377411525,-13.121271462108767 L121.94735442580124,-13.255509091056874 L121.96401864413107,-13.390546745072752 L121.97699331857709,-13.526278183655638 L121.98626824135005,-13.662596620471668 L121.99183611543012,-13.79939480736775 L121.99369256030778,-13.936565118748746 L121.99183611543012,-14.0739996362516 L121.98626824135006,-14.211590233649826 L121.9769933185771,-14.349228661921511 L121.96401864413107,-14.486806634413938 L121.94735442580124,-14.624215912037798 L121.92701377411525,-14.761348388424011 L121.90301269202457,-14.898096174976107 L121.87537006231413,-15.034351685751272 L121.8441076327464,-15.1700077221033 L121.80924999895137,-15.30495755702083 L121.770824585076,-15.439095019094527 L121.72886162220838,-15.572314576047145 L121.68339412459346,-15.704511417760747 L121.63445786365922,-15.835581538735786 L121.5820913398736,-15.965421819917143 L121.52633575245434,-16.093930109822736 " />
			<path d="M121.52633575245432,-11.845713564843972 L90.43125978484663,52.92302679627085 " />
			<path d="M90.43125978484663,52.923026796270854 L90.35688910954688,53.07100459358097 L90.27738618991258,53.21581936742943 L90.19284869730907,53.35729320917151 L90.10338048820307,53.4952523145828 L90.0090914765723,53.62952719738219 L89.91009749887338,53.759952897450034 L89.80652017173387,53.8863691834859 L89.69848674254295,54.00862074985676 L89.586129933125,54.126557407394024 L89.46958777668719,54.24003426790465 L89.3490034482424,54.34891192217005 L89.22452508871493,54.45305661121388 L89.09630562294558,54.55234039062831 L88.96450257181971,54.646641287757035 L88.82927785874864,54.735843451541776 L88.69079761074276,54.81983729484825 " />
			<path d="M88.69079761074275,54.81983729484826 L88.60615074593186,54.867727135670485 L88.52042881844221,54.913680496574926 L88.43366980233849,54.95767702062434 L88.34591213110653,54.9996972177431 L88.25719468062769,55.03972247335114 L88.16755675195716,55.077735056610045 L88.0770380539139,55.11371812827767 L87.98567868548999,55.14765574816775 L87.89351911808718,55.17953288221129 L87.80060017758834,55.20933540911651 L87.706963026272,55.23705012662448 L87.61264914457782,55.26266475735756 L87.51770031273107,55.28616795425822 L87.4221585922344,55.30754930561562 L87.32606630723497,55.32679933967802 L87.2294660257752,55.34390952884855 " />
			<path d="M87.22946602577518,55.34390952884857 L17.35946455051551,66.91506828906066 " />
			<path d="M17.359464550515515,66.91506828906066 L17.230011489015627,66.93453167464283 L17.099834078657764,66.95016594686841 L16.969034736159443,66.96195880551699 L16.837716367541578,66.96990097258961 L16.70598228716743,66.97398619960835 L16.573936136460343,66.97421127253212 L16.441681802364133,66.97057601428541 L16.309323335610326,66.96308328489762 L16.17696486885652,66.95173897925285 L16.04471053476031,66.93655202245219 L15.912664384053222,66.9175343627919 L15.780930303679074,66.8947009623631 L15.649611935061206,66.86806978528043 L15.518812592562885,66.83766178354878 L15.388635182205025,66.80350088057943 L15.259182120705134,66.76561395236827 L15.130555254901267,66.72403080635128 L15.002855781624303,66.67878415795357 L14.87618416808161,66.62990960485061 L14.750640072814752,66.57744559896186 L14.626322267293418,66.52143341619882 L14.503328558207226,66.46191712399136 L14.381755710516577,66.39894354661773 L14.26169937132312,66.33256222836576 L14.14325399461962,66.26282539455394 L14.026512766978566,66.18978791044339 L13.91156753423789,66.1135072380727 L13.798508729241497,66.03404339104986 L13.687425300691487,65.95145888733671 L13.578404643168001,65.8658187000631 L13.471532528371782,65.77719020640947 L13.366893037643564,65.68564313459811 " />
			<path d="M13.366893037643539,65.68564313459808 L-42.66449774610692,15.345901738844411 " />
			<path d="M-42.664497746106925,15.345901738844404 L-42.76682228793732,15.251508113280744 L-42.86675137731963,15.154342197888635 L-42.96420639531918,15.054480437683232 L-43.05911066947014,14.952001398628155 L-43.15138953409732,14.846985705823915 L-43.24097038905926,14.739515980076334 L-43.32778275686607,14.629676772894877 L-43.41175833812754,14.517554499971965 L-43.49283106528739,14.403237373195678 L-43.57093715460178,14.286815331249294 L-43.646015156320985,14.168379968852275 L-43.71800600303484,14.04802446469839 L-43.78685305614381,13.925843508147612 L-43.852502150419326,13.801933224729538 L-43.91490163661803,13.676391100516904 L-43.97400242211678,13.54931590542867 L-44.02975800953605,13.420807615523069 L-44.082124533321675,13.290967334341714 L-44.13106079425591,13.15989721336667 L-44.17652829187083,13.027700371653069 L-44.21849125473845,12.894480814700453 L-44.256916668613826,12.760343352626752 L-44.291774302408854,12.62539351770922 L-44.323036731976586,12.489737481357196 L-44.35067936168702,12.353481970582031 L-44.374680443777706,12.216734184029937 L-44.39502109546369,12.079601707643718 L-44.411685313793534,11.942192430019858 L-44.42465998823955,11.804614457527435 L-44.43393491101251,11.666976029255746 L-44.43950278509258,11.52938543185752 L-44.441359229970224,11.39195091435471 " />
			<path d="M-44.4413592299702,11.391950914354663 L-44.4413592299702,-62.951838622774105 " />
			<path d="M-44.44135922997021,-62.951838622774105 L-44.439502785092564,-63.089008934155096 L-44.43393491101249,-63.22580712105118 L-44.42465998823953,-63.362125557867216 L-44.41168531379352,-63.497856996450096 L-44.395021095463676,-63.632894650465985 L-44.37468044377769,-63.76713227941409 L-44.35067936168701,-63.90046427221116 L-44.32303673197657,-64.03278573028068 L-44.29177430240884,-64.16399255008153 L-44.256916668613805,-64.29398150501115 L-44.21849125473844,-64.42265032661882 L-44.17652829187082,-64.54989778506506 L-44.131060794255895,-64.6756237687639 L-44.08212453332166,-64.79972936314545 L-44.02975800953604,-64.9221169284766 L-43.97400242211677,-65.04269017667889 L-43.91490163661802,-65.1613542470828 L-43.85250215041931,-65.27801578105918 L-43.7868530561438,-65.39258299546887 L-43.71800600303482,-65.50496575487286 L-43.64601515632097,-65.615075642446 L-43.57093715460176,-65.72282602953887 L-43.492831065287376,-65.82813214383245 L-43.41175833812753,-65.9309111360326 L-43.32778275686606,-66.03108214505153 L-43.24097038905924,-66.12856636162495 L-43.151389534097305,-66.22328709031514 L-43.05911066947012,-66.3151698098508 L-42.96420639531917,-66.4041422317565 L-42.866751377319616,-66.49013435722541 L-42.76682228793731,-66.57307853219069 L-42.664497746106946,-66.65290950055207 " />
			<path d="M-42.6644977461069,-66.6529095005521 L13.366893037643543,-109.01835732066206 " />
			<path d="M13.36689303764353,-109.01835732066203 L13.471377246822707,-109.09490209369011 L13.578087651540695,-109.16822012678288 L13.686940543996332,-109.23825390641717 L13.797850535737513,-109.3049484953662 " />
			<path d="M13.79785053573755,-109.30494849536622 L13.896682912839847,-109.36061707121642 L13.996969183955944,-109.41364670342037 L14.098648915045253,-109.46400543551071 L14.201660832346889,-109.51166292054542 L14.305942859304189,-109.5565904393952 L14.41143215397299,-109.59876091805015 L14.51806514689114,-109.63814894393492 L14.625777579386428,-109.67473078122282 L14.734504542299858,-109.70848438513923 L14.84418051510088,-109.7393894152463 L14.954739405371079,-109.76742724770023 L15.066114588632464,-109.79258098647446 L15.178238948496414,-109.81483547354132 L15.291044917109023,-109.83417729800658 L15.404464515868531,-109.85059480419105 L15.518429396390271,-109.86407809865442 L15.632870881694444,-109.87461905615726 L15.747720007591921,-109.8822113245574 L15.86290756424312,-109.88685032863778 L15.978364137864908,-109.8885332728636 L16.094020152560415,-109.88725914306694 L16.20980591224653,-109.88302870705789 L16.32565164265382,-109.8758445141619 L16.44148753337359,-109.86571089368346 L16.55724377992668,-109.85263395229724 L16.67285062582873,-109.8366215703681 L16.78823840462649,-109.81768339720226 L16.903337581879907,-109.79583084523246 L17.01807879706462,-109.77107708314072 L17.132392905369702,-109.74343702792261 L17.24621101936534,-109.71292733589809 L17.359464550515494,-109.67956639267413 " />
			<path d="M17.359464550515497,-109.67956639267415 L87.22946602577517,-88.16462618957908 " />
			<path d="M54.194423552964565,74.53367217084342 L87.22946602577518,55.34390952884857 " />
			<path d="M55.655755137932125,74.0095999368431 L55.57110827312124,74.05748977766532 L55.485386345631596,74.10344313856977 L55.39862732952787,74.14743966261918 L55.31086965829591,74.18945985973795 L55.22215220781708,74.22948511534598 L55.132514279146555,74.2674976986049 L55.041995581103286,74.30348077027251 L54.95063621267938,74.3374183901626 L54.85847664527656,74.36929552420614 L54.76555770477772,74.39909805111137 L54.67192055346139,74.42681276861933 L54.5776066717672,74.45242739935242 L54.48265783992045,74.47593059625306 L54.38711611942379,74.49731194761047 L54.29102383442435,74.51656198167287 L54.19442355296459,74.5336721708434 " />
			<path d="M-15.675577922295098,86.10483093105549 L17.35946455051552,66.91506828906064 " />
			<path d="M54.194423552964565,74.53367217084342 L-15.675577922295105,86.1048309310555 " />
			<path d="M-19.66814943516708,84.87540577659293 L13.366893037643536,65.68564313459808 " />
			<path d="M-15.675577922295103,86.1048309310555 L-15.805030983794992,86.12429431663767 L-15.935208394152856,86.13992858886326 L-16.066007736651176,86.15172144751183 L-16.197326105269042,86.15966361458446 L-16.32906018564319,86.1637488416032 L-16.461106336350277,86.16397391452696 L-16.593360670446486,86.16033865628026 L-16.725719137200294,86.15284592689247 L-16.8580776039541,86.1415016212477 L-16.99033193805031,86.12631466444704 L-17.122378088757397,86.10729700478674 L-17.254112169131545,86.08446360435795 L-17.385430537749414,86.05783242727527 L-17.516229880247735,86.02742442554363 L-17.646407290605595,85.99326352257428 L-17.775860352105486,85.95537659436312 L-17.904487217909352,85.91379344834613 L-18.03218669118632,85.86854679994842 L-18.15885830472901,85.81967224684546 L-18.28440239999587,85.7672082409567 L-18.408720205517202,85.71119605819366 L-18.531713914603394,85.6516797659862 L-18.653286762294044,85.58870618861258 L-18.773343101487498,85.5223248703606 L-18.891788478191,85.45258803654879 L-19.008529705832053,85.37955055243823 L-19.12347493857273,85.30326988006755 L-19.236533743569122,85.22380603304471 L-19.347617172119133,85.14122152933155 L-19.456637829642617,85.05558134205795 L-19.563509944438838,84.96695284840432 L-19.668149435167056,84.87540577659296 " />
			<path d="M-75.69954021891752,34.53566438083924 L-42.6644977461069,15.345901738844397 " />
			<path d="M-19.66814943516708,84.87540577659293 L-75.69954021891753,34.53566438083926 " />
			<path d="M-77.47640170278082,30.581713556349506 L-44.4413592299702,11.39195091435466 " />
			<path d="M-75.69954021891755,34.53566438083924 L-75.80186476074795,34.44127075527559 L-75.90179385013025,34.34410483988348 L-75.9992488681298,34.24424307967807 L-76.09415314228075,34.141764040623 L-76.18643200690794,34.03674834781876 L-76.27601286186987,33.92927862207117 L-76.36282522967669,33.81943941488972 L-76.44680081093816,33.70731714196681 L-76.527873538098,33.59300001519052 L-76.6059796274124,33.47657797324414 L-76.6810576291316,33.35814261084712 L-76.75304847584546,33.23778710669323 L-76.82189552895443,33.115606150142455 L-76.88754462322994,32.99169586672438 L-76.94994410942866,32.86615374251175 L-77.0090448949274,32.73907854742351 L-77.06480048234667,32.610570257517914 L-77.11716700613229,32.480729976336555 L-77.16610326706653,32.349659855361516 L-77.21157076468144,32.21746301364791 L-77.25353372754907,32.0842434566953 L-77.29195914142444,31.950105994621595 L-77.32681677521947,31.815156159704063 L-77.3580792047872,31.67950012335204 L-77.38572183449763,31.543244612576874 L-77.40972291658832,31.40649682602478 L-77.4300635682743,31.26936434963856 L-77.44672778660414,31.1319550720147 L-77.45970246105017,30.99437709952228 L-77.46897738382313,30.85673867125059 L-77.47454525790319,30.719148073852363 L-77.47640170278085,30.581713556349552 " />
			<path d="M-77.47640170278082,-43.762075980779265 L-44.4413592299702,-62.95183862277411 " />
			<path d="M-77.47640170278082,30.581713556349506 L-77.47640170278082,-43.762075980779265 " />
			<path d="M-75.69954021891752,-47.46314685855726 L-42.6644977461069,-66.65290950055211 " />
			<path d="M-77.47640170278083,-43.762075980779265 L-77.47454525790317,-43.89924629216026 L-77.46897738382312,-44.03604447905634 L-77.45970246105016,-44.17236291587238 L-77.44672778660413,-44.308094354455264 L-77.43006356827429,-44.443132008471146 L-77.40972291658831,-44.57736963741925 L-77.38572183449762,-44.71070163021632 L-77.35807920478719,-44.84302308828585 L-77.32681677521946,-44.974229908086684 L-77.29195914142443,-45.10421886301631 L-77.25353372754905,-45.23288768462398 L-77.21157076468143,-45.36013514307022 L-77.16610326706652,-45.48586112676905 L-77.11716700613228,-45.609966721150606 L-77.06480048234666,-45.732354286481765 L-77.00904489492738,-45.85292753468405 L-76.94994410942863,-45.971591605087966 L-76.88754462322993,-46.08825313906434 L-76.82189552895441,-46.20282035347404 L-76.75304847584545,-46.31520311287801 L-76.68105762913159,-46.42531300045117 L-76.60597962741238,-46.53306338754403 L-76.52787353809799,-46.63836950183761 L-76.44680081093814,-46.741148494037766 L-76.36282522967667,-46.84131950305668 L-76.27601286186986,-46.93880371963011 L-76.18643200690792,-47.03352444832029 L-76.09415314228073,-47.12540716785596 L-75.99924886812978,-47.21437958976166 L-75.90179385013023,-47.300371715230575 L-75.80186476074793,-47.383315890195846 L-75.69954021891756,-47.46314685855723 " />
			<path d="M-19.66814943516709,-89.8285946786672 L13.366893037643525,-109.01835732066205 " />
			<path d="M-75.69954021891752,-47.46314685855726 L-19.668149435167074,-89.82859467866723 " />
			<path d="M-19.668149435167088,-89.82859467866717 L-19.56366522598791,-89.90513945169526 L-19.456954821269925,-89.97845748478804 L-19.348101928814287,-90.04849126442232 L-19.237191937073106,-90.11518585337136 " />
			<path d="M-75.69954021891752,34.535664380839236 L-75.7731480627472,34.57635857393229 L-75.84023387262818,34.60914073994347 L-75.9006525788004,34.63393998905322 L-75.95427352878727,34.65070269410665 L-76.00098076992514,34.6593926065796 L-76.02170959631528,34.660703709967834 L-76.04067330010525,34.65999093496431 L-76.05786162789023,34.65725466695635 L-76.0732652861859,34.65249638540512 L-76.08687594645335,34.64571866304577 L-76.09868624960222,34.63692516449636 " />
			<path d="M-19.66814943516708,84.87540577659293 L-19.741757278996758,84.91609996968597 L-19.808843088877737,84.94888213569716 L-19.869261795049965,84.97368138480691 L-19.92288274503683,84.99044408986033 L-19.969589986174697,84.99913400233329 L-19.990318812564837,85.00044510572152 L-20.009282516354823,84.999732330718 L-20.026470844139798,84.99699606271004 L-20.041874502435462,84.9922377811588 L-20.05548516270292,84.98546005879946 L-20.067295465851792,84.97666656025005 " />
			<path d="M-77.47640170278082,30.581713556349506 L-77.54171557030227,30.62237841657417 L-77.59855670790706,30.66356594828652 L-77.64682445952394,30.705203215312153 L-77.68643335110279,30.747216485071235 L-77.7173132419747,30.789531359146498 L-77.73940944905931,30.83207290503027 L-77.74715083379778,30.853405150090627 L-77.75268284369933,30.87476578881734 L-77.75600302942865,30.896145363641107 L-77.75710992095074,30.917534408608553 " />
			<path d="M-15.67557792229511,86.10483093105555 L-15.732233057806523,86.13459827301656 L-15.7900325294157,86.15874772431562 L-15.848909761432084,86.17725146867082 L-15.90879693675854,86.19008819274616 " />
			<path d="M54.194423552964565,74.5336721708434 L54.13776841745315,74.56343951280442 L54.07996894584397,74.58758896410347 L54.02109171382759,74.60609270845868 L53.961204538501136,74.61892943253402 " />
			<path d="M-77.47640170278082,-43.762075980779265 L-77.54171556922691,-43.72141112127518 L-77.59855670605644,-43.68022359030053 L-77.64682445720311,-43.638586324025844 L-77.68643334862062,-43.59657305502703 L-77.71731323964285,-43.5542581817174 L-77.73940944719108,-43.51171663660062 L-77.74715083227905,-43.490384391923016 L-77.75268284260856,-43.46902375357789 L-77.75600302884418,-43.44764417913405 L-77.75710992095074,-43.42625513454436 " />
			<path d="M-19.668149435167038,-89.82859467866716 L-19.705505124654128,-89.80536301732377 L-19.741271829670307,-89.77999105344257 " />
			<path d="M-75.69954021891753,-47.46314685855726 L-75.73689590840462,-47.439915197213864 L-75.7726626134208,-47.41454323333268 " />
			<path d="M55.65575513793213,74.00959993684312 L88.69079761074275,54.81983729484827 " />
			<path d="M-19.23719193707307,-90.11518585337137 L13.797850535737545,-109.30494849536622 " />
			<path d="M-20.067295465851796,84.97666656025004 L-76.09868624960225,34.63692516449635 " />
			<path d="M-76.09868625588622,34.63692515885071 L-76.24455389860307,34.500512842756294 L-76.38485757705973,34.35838414408661 L-76.51937344689986,34.210765818885555 L-76.64788689779654,34.05789338149856 L-76.77019289584744,33.90001072882645 L-76.88609631069171,33.737369751205655 L-76.99541222682618,33.570229930535376 L-77.09796623862474,33.39885792629305 L-77.19359472858986,33.22352715009845 L-77.28214512839247,33.04451732950526 L-77.36347616228367,32.862114061716 L-77.43745807248993,32.676608357932416 L-77.50397282623226,32.48829617906814 L-77.56291430403891,32.297477963564546 L-77.61418846905137,32.10445814806291 L-77.6577135170533,31.90954468169786 L-77.69342000698325,31.7130485347868 L-77.72125097172288,31.51528320269932 L-77.74116200898385,31.316564205698015 L-77.75312135214838,31.117208585548788 L-77.75710992095074,30.917534399703648 " />
			<path d="M53.96120453850112,74.61892943253403 L-15.908796936758577,86.19008819274617 " />
			<path d="M-77.75710992095074,30.917534402584415 L-77.75710992095074,-43.426255134544355 " />
			<path d="M-15.908796928801587,86.19008819142837 L-16.10154669923689,86.21816369947906 L-16.295243731444483,86.23871042352785 L-16.489594065321587,86.2516971812843 L-16.684302749296304,86.25710426367698 L-16.87907428795447,86.25492346476449 L-17.073613090491882,86.24515809418904 L-17.267623919311266,86.2278229721536 L-17.46081233808321,86.20294440693044 L-17.65288515859109,86.17056015493485 L-17.84355088568181,86.13071936342499 L-18.032520159647106,86.08348249591457 L-18.21950619536402,86.02892124041179 L-18.40422521752814,85.96711840062349 L-18.586396891319048,85.89816777029 L-18.76574474784436,85.82217399084101 L-18.941996603716774,85.73925239258882 L-19.114884974127268,85.64952881969981 L-19.284147478787634,85.5531394392097 L-19.44952724012624,85.4502305343727 L-19.610773273132693,85.34095828265778 L-19.767640866259818,85.22548851872942 L-19.919891952804818,85.10399648277219 L-20.067295472206055,84.97666655454125 " />
			<path d="M-75.77266261342082,-47.414543233332665 L-19.741271829670325,-89.77999105344259 " />
			<path d="M-77.75710992095074,-43.42625513166371 L-77.75340955270825,-43.618582952864365 L-77.7423139248494,-43.810626100556085 L-77.72383946053824,-44.002100322584376 L-77.69801350470404,-44.19272220888858 L-77.66487428356663,-44.382209610990486 L-77.62447084805609,-44.570282059615664 L-77.57686300121007,-44.7566611798293 L-77.52212120965649,-44.94107110307214 L-77.46032649931259,-45.12323887548658 L-77.39157033545459,-45.30289486192859 L-77.31595448733563,-45.47977314506752 L-77.23359087755225,-45.65361191898282 L-77.1446014163825,-45.824153876675474 L-77.04911782134073,-45.99114659092021 L-76.9472814222163,-46.15434288789503 L-76.8392429518846,-46.31350121303484 L-76.72516232320027,-46.46838598856785 L-76.60520839230254,-46.61876796220534 L-76.47955870868331,-46.764424546468845 L-76.34839925238774,-46.90514014815243 L-76.21192415873632,-47.04070648743237 L-76.07033543097612,-47.170922906152015 L-75.92384264128607,-47.295596664825396 L-75.77266262057934,-47.414543227920085 " />
			<path d="M-19.74127183329235,-89.77999105070403 L-19.61911745430369,-89.86947761475793 L-19.494309303911976,-89.95522411934019 L-19.36696185384356,-90.0371519193433 L-19.23719190482347,-90.1151858721049 " />
			<path d="M55.655755106331924,74.00959995519939 L55.497576420303375,74.09769350946539 L55.336312003670656,74.18000243331356 L55.172173312600464,74.25641880008601 L55.0053755721198,74.32684240967455 L54.83613749390451,74.39118091990701 L54.66468098949608,74.44934996762981 L54.49123087932257,74.50127327932825 L54.31601459790536,74.54688277113928 L54.13926189563817,74.58611863812577 L53.9612045375294,74.61892943269496 " />

       </g>
    </g>
    <g transform="translate(20,210.0)" stroke="rgb(0,0,255)">
        <line x1="30" y1="-30" x2="75" y2="-33" stroke-width="3" stroke="#000000" />
         <text x="80" y="-30" style="stroke:#000000">X </text>

        <line x1="30" y1="-30" x2="30" y2="-75" stroke-width="3" stroke="#000000" />
         <text x="25" y="-85" style="stroke:#000000">Y </text>

        <line x1="30" y1="-30" x2="58" y2="-15" stroke-width="3" stroke="#000000" />
         <text x="65" y="-5" style="stroke:#000000">Z </text>
        <!--
            <line x1="0" y1="0" x2="0.917684626391498" y2="0" stroke-width="3" />
            <text x="0" y="20" style="stroke:#000000">1  mm </text>
        -->
    </g>
</svg>
