<?xml version="1.0" encoding="UTF-8" standalone="no"?>
<svg
   xmlns:svg="http://www.w3.org/2000/svg"
   xmlns="http://www.w3.org/2000/svg"
   width="800.0"
   height="240.0"

>
    <g transform="scale(1.0141649500870336, -1.0141649500870336)   translate(241.84862962386885,-95.01727903238023)" stroke-width="0.9860328932824803"  fill="none">
       <!-- hidden lines -->
       <g  stroke="rgb(160,160,160)" fill="none" stroke-dasharray="0.9860328932824803,0.9860328932824803" >
			<path d="M84.23935830566707,4.91737667701118 L117.27440077847768,-14.272385964983666 " />
			<path d="M-39.64205096737271,70.29662116673062 L-6.607008494562095,51.10685852473577 " />
			<path d="M84.23935830566707,4.91737667701118 L-39.64205096737271,70.29662116673062 " />
			<path d="M-39.64205096737277,-78.09246224004097 L-6.607008494562152,-97.28222488203582 " />
			<path d="M-39.64205096737271,70.29662116673062 L-39.64205096737277,-78.09246224004097 " />
			<path d="M-39.64205096737277,-78.09246224004097 L-6.6070084945621375,-55.95650519549372 " />
			<path d="M82.773962629954,3.9354516270420135 L84.23935830566703,4.917376677011205 " />

       </g>

       <!-- solid lines -->
       <g  stroke="rgb(0,0,0)" fill="none">
			<path d="M117.27440077847768,-14.272385964983663 L-6.607008494562095,51.10685852473578 " />
			<path d="M-6.607008494562095,51.10685852473577 L-6.607008494562148,-97.28222488203582 " />
			<path d="M-6.6070084945621375,-55.95650519549372 L82.773962629954,3.9354516270420135 " />
			<path d="M-6.607008494562145,-97.28222488203582 L117.27440077847766,-14.272385964983641 " />
			<path d="M-11.326300276392232,-97.61804572827073 L-11.323951520674195,-97.77231324039741 L-11.316907591435887,-97.92609292600804 L-11.3051755000976,-98.07923171513681 L-11.288766924605046,-98.23157717575651 L-11.26769819780531,-98.38297766550711 L-11.241990291189381,-98.53328248263824 L-11.211668794017456,-98.68234201601544 L-11.17676388784776,-98.83000789404078 L-11.137310316494304,-98.97613313233973 L-11.093347351443402,-99.1205722800672 L-11.044918752763435,-99.26318156468703 L-10.992072725546745,-99.40381903508106 L-10.934861871927014,-99.54234470284509 L-10.873343138719909,-99.67862068163119 L-10.807577760739065,-99.81251132439775 L-10.737631199843896,-99.9438833584304 L-10.663573079779859,-100.07260601799973 L-10.585477116876007,-100.19855117452343 L-10.50342104666891,-100.32159346410363 L-10.41748654652585,-100.44161041231212 L-10.327759154344427,-100.5584825560996 L-10.234328183409431,-100.67209356270743 L-10.137286633491742,-100.78233034546338 L-10.036731098277784,-100.88908317634645 L-9.932761669221629,-100.9922457952085 L-9.825481835915483,-101.09171551554397 L-9.714998383077713,-101.1873933267024 L-9.601421284260958,-101.27918399244228 L-9.484863592386132,-101.36699614572761 L-9.365441327211252,-101.45074237967334 L-9.243273359847137,-101.53033933454884 L-9.11848129443494,-101.60570778075291 " />
			<path d="M-9.118481294434902,-101.60570778075292 L-8.981620794086423,-101.68188679743882 L-8.842031817070753,-101.75301051525251 L-8.699874753893265,-101.81899721163046 L-8.55531294584131,-101.87977106654871 L-8.408512497301825,-101.93526224964165 L-8.259642084904112,-101.9854070004384 L-8.108872763707025,-102.03014770162497 L-7.95637777065333,-102.06943294524758 L-7.802332325517004,-102.10321759178154 L-7.646913429572246,-102.13146282199737 L-7.490299662215493,-102.1541361815649 L-7.332670975774158,-102.1712116183439 L-7.174208488737819,-102.1826695123186 L-7.015094277649496,-102.18849669814138 L-6.855511167896077,-102.18868648026006 L-6.695642523638327,-102.18323864061122 L-6.53567203712182,-102.17215943887075 L-6.375783517610912,-102.15546160526138 L-6.216160680188235,-102.13316432592536 L-6.0569869346624365,-102.10529322087925 L-5.898445174826655,-102.07188031457596 L-5.740717568309927,-102.03296399910809 L-5.583985347262967,-101.98858899009456 L-5.428428600118824,-101.93880627530156 L-5.274226064667704,-101.88367305605655 L-5.121554922683691,-101.82325268152282 L-4.970590596339383,-101.75761457591001 L-4.821506546642326,-101.68683415870439 L-4.674474074124879,-101.61099275801027 L-4.529662122016492,-101.53017751710246 L-4.387237082124597,-101.44448129429692 L-4.247362603647111,-101.3540025562547 " />
			<path d="M-4.247362603647105,-101.35400255625471 L119.63404666939269,-18.344163639202534 " />
			<path d="M119.63404666939273,-9.864787444529876 L119.7858735783504,-9.948903066266531 " />
			<path d="M119.78587357835045,-9.948903066266555 L119.91296268376877,-10.025713902991843 L120.0373267863896,-10.106910535337732 L120.15883744786672,-10.192409106620843 L120.2773691767755,-10.282121317284709 L120.39279955821553,-10.375954516092108 L120.5050093802359,-10.473811795811587 L120.61388275695259,-10.575592093299452 L120.71930724823089,-10.681190293873788 L120.82117397580906,-10.79049733987277 L120.91937773574362,-10.903400343285114 L121.01381710705975,-11.019782702336377 L121.10439455649491,-11.139524221910666 L121.19101653922735,-11.262501237683425 L121.27359359548552,-11.388586743837081 L121.35204044293859,-11.517650524227639 L121.42627606477271,-11.649559286866797 L121.49622379336192,-11.784176801580655 L121.56181138944753,-11.921364040702873 L121.62297111674391,-12.06097932265697 L121.67963981189394,-12.202878458279468 L121.73175894970156,-12.346914899732798 L121.7792747035743,-12.49293989185411 L121.82213800111332,-12.640802625783762 L121.86030457479339,-12.790350394714764 L121.89373500768068,-12.941428751602354 L121.92239477414097,-13.093881668670823 L121.94625427549646,-13.24755169855285 L121.965288870594,-13.40228013689495 L121.9794789012536,-13.557907186261065 L121.98880971257056,-13.714272121165079 L121.9932716680505,-13.871213454061753 L121.99286015956159,-14.028569102124708 L121.98757561209358,-14.186176554639182 L121.97742348331892,-14.343873040836698 L121.96241425795628,-14.501495697998292 L121.94256343694241,-14.658881739652728 L121.91789152142326,-14.815868623695936 L121.88842399158132,-14.972294220258112 L121.85419128032059,-15.127996979145044 L121.8152287418368,-15.2828160966808 L121.77157661510488,-15.436591681779433 L121.72327998232176,-15.589164921074183 L121.67038872234727,-15.740378242933673 L121.61295745919124,-15.890075480195689 L121.5510455055999,-16.038102031450464 L121.48471680180009,-16.184305020706923 L121.41403984946429,-16.328533455277004 L121.33908764096473,-16.470638381714924 L121.25993758398987,-16.61047303965046 L121.17667142160064,-16.747893013357274 L121.08937514780955,-16.882756380899767 L120.99813891876937,-17.014923860704485 L120.9030569596635,-17.144258955404627 L120.80422746739383,-17.27062809280916 L120.70175250916687,-17.393900763850915 L120.59573791708279,-17.513949657371192 L120.48629317883616,-17.630650791601735 L120.37353132464139,-17.743883642208207 L120.25756881049958,-17.85353126676297 L120.13852539792732,-17.95948042551863 L120.01652403027178,-18.061621698357573 L119.89169070573958,-18.159849597796764 L119.76415434727086,-18.25406267793106 L119.63404666939275,-18.344163639202527 " />
			<path d="M119.63404666939272,-9.864787444529878 L-4.247362603647062,55.51445704518956 " />
			<path d="M-4.247362603647057,55.51445704518956 L-4.3823497484776475,55.582670773289756 L-4.5197191136151735,55.64609168952734 L-4.659323600502715,55.70465188119666 L-4.801013717159003,55.758288640577724 L-4.944637738258169,55.80694453208512 L-5.090041867601032,55.85056745377153 L-5.237070402803916,55.889110693119775 L-5.385565902028663,55.92253297706377 L-5.535369352575296,55.95079851618471 L-5.686320341156801,55.973877043035344 L-5.838257225673694,55.99174384455106 L-5.991017308304436,56.004379788513276 L-6.144437009726319,56.01177134403672 L-6.298352044280314,56.01391059605858 L-6.452597595892271,56.010795253814216 L-6.607008494562098,56.00242865329014 L-6.761419393231925,55.98881975365174 L-6.915664944843883,55.96998312764963 L-7.069579979397879,55.94593894601472 L-7.222999680819762,55.91671295585896 L-7.375759763450503,55.88233645310464 L-7.5276966479673995,55.842846248971945 L-7.678647636548906,55.79828463056058 L-7.828451087095536,55.74869931556769 L-7.976946586320282,55.69414340119054 L-8.123975121523166,55.63467530726872 L-8.269379250866033,55.57035871372673 L-8.413003271965199,55.50126249238387 L-8.554693388621487,55.427460633204646 L-8.69429787550903,55.34903216506839 L-8.831667240646551,55.2660610711432 L-8.966654385477145,55.17863619895465 L-9.09911476238506,55.08685116524564 L-9.228906529480934,54.99080425572922 L-9.355890702489635,54.89059831984183 L-9.479931303578095,54.78634066060949 L-9.600895506963791,54.67814291974508 L-9.718653781147918,54.56612095809957 L-9.83308002762095,54.45039473159534 L-9.944051715892101,54.33108816277435 L-10.051450014698036,54.20832900809881 L-10.155159919250357,54.082248721146314 L-10.255070374385618,53.952982311846114 L-10.351074393485977,53.82066820190704 L-10.443069173043146,53.68544807659213 L-10.530956202742951,53.54746673299847 L-10.614641370952668,53.406871925004836 L-10.694035065498085,53.26381420505314 L-10.769052269622494,53.118446762933104 L-10.839612653024737,52.97092526174282 L-10.905640657878926,52.82140767120077 L-10.96706557974364,52.67005409848791 L-11.023821643274022,52.51702661680089 L-11.075848072655653,52.36248909180004 L-11.12308915668484,52.20660700613786 L-11.165494308425538,52.04954728225609 L-11.203018119379133,51.89147810364099 L-11.235620408108986,51.732568734728225 L-11.263266263267726,51.57298933965026 L-11.285926080981195,51.41291080002039 L-11.303575596549024,51.252504531948375 L-11.316195910427863,51.091942302483794 L-11.323773508469513,50.93139604568361 L-11.326300276392189,50.7710376785009 " />
			<path d="M-11.326300276392182,50.77103767850086 L-11.326300276392235,-97.61804572827073 " />
			<path d="M86.5990041965821,9.324975197464966 L119.63404666939272,-9.864787444529881 " />
			<path d="M-37.282405076457664,74.7042196871844 L-4.247362603647048,55.51445704518956 " />
			<path d="M86.5990041965821,9.324975197464966 L-37.28240507645768,74.7042196871844 " />
			<path d="M86.59900419658211,9.324975197464967 L86.75083110553979,9.240859575728312 " />
			<path d="M-44.361342749202805,69.96080032049571 L-11.326300276392189,50.77103767850086 " />
			<path d="M-37.28240507645768,74.7042196871844 L-37.41739222128827,74.77243341528461 L-37.5547615864258,74.83585433152219 L-37.69436607331334,74.8944145231915 L-37.836056189969625,74.94805128257256 L-37.979680211068796,74.99670717407997 L-38.125084340411654,75.04033009576638 L-38.27211287561454,75.07887333511462 L-38.42060837483929,75.11229561905861 L-38.57041182538592,75.14056115817955 L-38.721362813967424,75.16363968503019 L-38.87329969848432,75.1815064865459 L-39.02605978111506,75.19414243050812 L-39.17947948253694,75.20153398603156 L-39.33339451709094,75.20367323805343 L-39.487640068702895,75.20055789580907 L-39.642050967372725,75.19219129528499 L-39.79646186604255,75.17858239564659 L-39.950707417654506,75.15974576964447 L-40.1046224522085,75.13570158800957 L-40.258042153630385,75.10647559785382 L-40.41080223626113,75.07209909509949 L-40.56273912077802,75.0326088909668 L-40.713690109359526,74.98804727255543 L-40.86349355990616,74.93846195756254 L-41.011989059130904,74.88390604318539 L-41.15901759433379,74.82443794926357 L-41.304421723676654,74.76012135572158 L-41.448045744775825,74.69102513437872 L-41.58973586143211,74.61722327519949 L-41.72934034831965,74.53879480706323 L-41.866709713457176,74.45582371313805 L-42.001696858287765,74.3683988409495 L-42.13415723519569,74.27661380724048 L-42.263949002291554,74.18056689772408 L-42.39093317530026,74.08036096183667 L-42.51497377638872,73.97610330260433 L-42.63593797977442,73.86790556173992 L-42.75369625395854,73.75588360009442 L-42.868122500431575,73.64015737359018 L-42.979094188702724,73.5208508047692 L-43.08649248750866,73.39809165009365 L-43.19020239206098,73.27201136314116 L-43.29011284719624,73.14274495384096 L-43.386116866296604,73.01043084390189 L-43.47811164585377,72.87521071858697 L-43.56599867555357,72.73722937499332 L-43.64968384376329,72.59663456699968 L-43.72907753830871,72.45357684704798 L-43.804094742433115,72.30820940492795 L-43.87465512583536,72.16068790373767 L-43.94068313068955,72.01117031319562 L-44.00210805255426,71.85981674048276 L-44.05886411608464,71.70678925879574 L-44.110890545466276,71.55225173379489 L-44.158131629495465,71.3963696481327 L-44.20053678123616,71.23930992425093 L-44.238060592189754,71.08124074563584 L-44.27066288091961,70.92233137672306 L-44.29830873607835,70.76275198164511 L-44.32096855379182,70.60267344201525 L-44.33861806935965,70.44226717394322 L-44.35123838323849,70.28170494447863 L-44.35881598128014,70.12115868767846 L-44.36134274920281,69.96080032049575 " />
			<path d="M-44.36134274920285,-78.4282830862759 L-11.326300276392232,-97.61804572827074 " />
			<path d="M-44.361342749202805,69.96080032049571 L-44.36134274920286,-78.42828308627588 " />
			<path d="M-44.361342749202855,-78.42828308627588 L-44.358993993484816,-78.58255059840256 L-44.35195006424651,-78.73633028401319 L-44.34021797290822,-78.88946907314197 L-44.323809397415666,-79.04181453376167 L-44.30274067061593,-79.19321502351227 L-44.277032764000005,-79.3435198406434 L-44.24671126682808,-79.4925793740206 L-44.211806360658386,-79.64024525204593 L-44.17235278930493,-79.78637049034488 L-44.12838982425403,-79.93080963807235 L-44.07996122557406,-80.07341892269218 L-44.027115198357365,-80.21405639308621 L-43.969904344737635,-80.35258206085024 L-43.908385611530534,-80.48885803963634 L-43.84262023354969,-80.6227486824029 L-43.77267367265452,-80.75412071643555 L-43.69861555259048,-80.88284337600489 L-43.62051958968663,-81.00878853252858 L-43.538463519479535,-81.13183082210878 L-43.452529019336474,-81.25184777031727 L-43.36280162715505,-81.36871991410476 L-43.269370656220055,-81.48233092071258 L-43.172329106302364,-81.59256770346853 L-43.07177357108841,-81.6993205343516 L-42.96780414203225,-81.80248315321366 L-42.860524308726106,-81.90195287354912 L-42.75004085588834,-81.99763068470756 L-42.63646375707158,-82.08942135044744 L-42.51990606519676,-82.17723350373277 L-42.400483800021874,-82.2609797376785 L-42.27831583265776,-82.340576692554 L-42.15352376724556,-82.41594513875806 " />
			<path d="M-44.361342749202784,-78.4282830862759 L-44.42665661684449,-78.38761822597066 L-44.48349775453597,-78.34643069417581 L-44.53176550620543,-78.3047934270662 L-44.57137439780231,-78.26278015722211 L-44.60225428865741,-78.22046528306123 L-44.62435049569019,-78.17792373709169 L-44.63209188038957,-78.15659149198854 L-44.63762389024326,-78.13523085321916 L-44.64094407591597,-78.1138512783529 L-44.6420509673727,-78.09246223334321 " />
			<path d="M-37.282405076457685,74.70421968718439 L-37.308330748357,74.71858339399546 " />
			<path d="M86.59900419658211,9.324975197464966 L86.5730785246828,9.339338904276037 " />
			<path d="M86.57307852468278,9.339338904276046 L86.54659042541522,9.35263691668382 " />
			<path d="M-44.3613427492028,69.96080032049571 L-44.42665661598551,70.00146518022535 L-44.48349775305772,70.04265271143093 L-44.53176550435158,70.08428997794068 L-44.5713743958196,70.12630324717749 L-44.602254286794775,70.16861812072679 L-44.62435049419787,70.21115966608367 L-44.632091879176436,70.2324919108811 L-44.63762388937198,70.25385254934567 L-44.64094407544911,70.27523212390844 L-44.64205096737271,70.29662116861637 " />
			<path d="M86.75083110553983,9.240859575728287 L119.78587357835045,-9.94890306626656 " />
			<path d="M-42.15352376724552,-82.41594513875809 L-9.1184812944349,-101.60570778075294 " />
			<path d="M-44.64205096737277,-78.09246218682394 L-44.63830974733066,-78.28584839180397 L-44.62709168178179,-78.47894519656604 L-44.60841355843608,-78.67146363389676 L-44.58230332889665,-78.86311560210314 L-44.54880006683063,-79.05361429615357 L-44.50795390949581,-79.24267463687832 L-44.459825982710804,-79.4300136975874 L-44.40448830938095,-79.61535112746711 L-44.342023701716826,-79.798409571122 L-44.2725256373067,-79.97891508363402 L-44.196098119228374,-80.1565975405181 L-44.11285552040974,-80.33119104196047 L-44.022922412470955,-80.5024343107346 L-43.926433379304406,-80.67007108319986 L-43.82353281567143,-80.83385049279703 L-43.71437471111714,-80.9935274454674 L-43.59912241952682,-81.14886298643327 L-43.477948414668646,-81.29962465779111 L-43.35103403208859,-81.44558684638223 L-43.21856919774386,-81.58653112142028 L-43.08075214378074,-81.7222465613706 L-42.937789111882495,-81.85253006959186 L-42.7898940446309,-81.97718667826797 L-42.637288265343614,-82.09602984017518 L-42.48020014686628,-82.20888170784795 L-42.318864769815136,-82.31557339972574 L-42.15352357078145,-82.41594525288231 " />
			<path d="M86.57307852468278,9.339338904276048 L-37.308330748357065,74.7185833939955 " />
			<path d="M-37.308330741906566,74.71858339059122 L-37.48498154340037,74.80739177718773 L-37.66500534876117,74.88914668347289 L-37.84812065523115,74.96372026951167 L-38.034041125880236,75.03099592478087 L-38.22247603735039,75.09086845051273 L-38.41313073445899,75.14324422419395 L-38.60570709095034,75.18804134596301 L-38.79990397567499,75.22518976667669 L-38.99541772346765,75.25463139744583 L-39.19194260998768,75.27632020046872 L-39.389171329779444,75.29022226102026 L-39.58679547680503,75.29631584048443 L-39.784506026698,75.29459141034678 L-39.98199381998395,75.2850516670943 L-40.17895004551242,75.26771152799873 L-40.37506672334409,75.24259810779067 L-40.570037186338176,75.20975067626017 L-40.76355655968707,75.1692205968508 L-40.955322237648275,75.12107124634268 L-41.145034356728246,75.06537791575036 L-41.332396264578115,75.00222769259055 L-41.51711498386824,74.93171932470351 L-41.69890167041606,74.85396306584134 L-41.877472064851034,74.76908050326446 L-42.05254693711024,74.67720436761599 L-42.22385252306975,74.57847832537105 L-42.39112095262882,74.47305675418602 L-42.55409066857772,74.3611045014985 L-42.712506835594056,74.24279662675582 L-42.86612173872808,74.11831812767505 L-43.01469517075396,73.98786365096257 L-43.15799480778114,73.85163718794544 L-43.295796572538634,73.70985175559078 L-43.42788498476409,73.56272906341165 L-43.5540534981497,73.41049916678047 L-43.67410482331812,73.25340010719198 L-43.78785123632335,73.09167754003848 L-43.89511487219422,72.925584350479 L-43.99572800306136,72.75538025800356 L-44.08953330043282,72.58133141031036 L-44.176384081208255,72.4037099671314 L-44.25614453704689,72.22279367465698 L-44.32868994673068,72.03886543122469 L-44.39390687119054,71.85221284495202 L-44.45169333089073,71.66312778400432 L-44.50195896529401,71.47190592020127 L-44.54462517415816,71.27884626667563 L-44.57962524044297,71.08425071030722 L-44.60690443463552,70.88842353966308 L-44.62642010033054,70.6916709691824 L-44.63814172093219,70.49430066034961 L-44.64205096737271,70.29662124060505 " />
			<path d="M-44.64205096737271,70.29662116673062 L-44.64205096737269,-78.092462240041 " />
			<path d="M86.75083118563296,9.240859529202893 L86.66245520281637,9.29100233852194 L86.57307851823246,9.339338907680244 " />

       </g>
    </g>
    <g transform="translate(20,210.0)" stroke="rgb(0,0,255)">
        <line x1="30" y1="-30" x2="75" y2="-33" stroke-width="3" stroke="#000000" />
         <text x="80" y="-30" style="stroke:#000000">X </text>

        <line x1="30" y1="-30" x2="30" y2="-75" stroke-width="3" stroke="#000000" />
         <text x="25" y="-85" style="stroke:#000000">Y </text>

        <line x1="30" y1="-30" x2="58" y2="-15" stroke-width="3" stroke="#000000" />
         <text x="65" y="-5" style="stroke:#000000">Z </text>
        <!--
            <line x1="0" y1="0" x2="1.0141649500870336" y2="0" stroke-width="3" />
            <text x="0" y="20" style="stroke:#000000">1  mm </text>
        -->
    </g>
</svg>
