<?xml version="1.0" encoding="UTF-8" standalone="no"?>
<svg
   xmlns:svg="http://www.w3.org/2000/svg"
   xmlns="http://www.w3.org/2000/svg"
   width="800.0"
   height="240.0"

>
    <g transform="scale(0.8980163183965094, -0.8980163183965094)   translate(308.64895615113903,-111.98429932687698)" stroke-width="1.1135655104637652"  fill="none">
       <!-- hidden lines -->
       <g  stroke="rgb(160,160,160)" fill="none" stroke-dasharray="1.1135655104637652,1.1135655104637652" >
			<path d="M1.651752123640536,84.71298911760168 L34.68679459645115,65.52322647560683 " />
			<path d="M28.55171528007203,58.72241820838077 L1.6517521236405202,84.71298911760168 " />
			<path d="M-80.935854058386,-6.836352941210654 L-47.90081158557538,-26.026115583205502 " />
			<path d="M1.651752123640536,84.71298911760168 L-80.93585405838601,-6.836352941210663 " />
			<path d="M1.6517521236405157,-86.63196538180115 L34.68679459645113,-105.821728023796 " />
			<path d="M-80.935854058386,-6.836352941210654 L1.6517521236405344,-86.63196538180117 " />
			<path d="M1.6517521236405157,-86.63196538180115 L7.786831440019635,-79.83115711457509 " />

       </g>

       <!-- solid lines -->
       <g  stroke="rgb(0,0,0)" fill="none">
			<path d="M84.23935830566707,4.91737667701118 L117.27440077847768,-14.272385964983666 " />
			<path d="M84.23935830566707,4.91737667701118 L28.55171528007203,58.72241820838077 " />
			<path d="M117.27440077847768,-14.272385964983663 L34.686794596451136,65.52322647560683 " />
			<path d="M34.68679459645116,65.52322647560683 L-47.90081158557539,-26.02611558320551 " />
			<path d="M-47.90081158557538,-26.0261155832055 L34.68679459645115,-105.82172802379601 " />
			<path d="M7.786831440019635,-79.83115711457509 L84.23935830566708,4.9173766770112195 " />
			<path d="M34.686794596451136,-105.821728023796 L117.2744007784777,-14.272385964983627 " />
			<path d="M31.349751375121148,-109.5208800571076 L31.444585038439833,-109.60978825197812 L31.541965757866585,-109.69572057444762 L31.641817031820683,-109.7786095167123 L31.74406041787184,-109.85838996182554 L31.848615594364013,-109.93499923485335 L31.955400423515496,-110.00837715211134 L32.06433101594577,-110.07846606844456 L32.175321796578345,-110.14521092251309 " />
			<path d="M32.17532179657838,-110.1452109225131 L32.259937408939656,-110.19308354856915 L32.345627309206336,-110.2390211228246 L32.43235356534684,-110.28300331026317 L32.520077786569765,-110.32501064145244 L32.608761140318194,-110.36502452116228 L32.698364369459554,-110.40302723659643 L32.78884780966342,-110.43900196523322 L32.880171406959626,-110.47293278227242 L32.972294735468715,-110.50480466768464 L33.065177015297216,-110.53460351286007 L33.15877713058945,-110.56231612685403 L33.25305364772819,-110.58793024222607 L33.347964833675874,-110.61143452047034 L33.44346867444847,-110.63281855703485 L33.5395228937136,-110.65207288592713 L33.63608497150491,-110.66918898390453 L33.73311216304414,-110.68415927424721 L33.83056151766288,-110.69697713011205 L33.92838989781533,-110.70763687746613 L34.026553998173874,-110.71613379759847 L34.12501036479887,-110.72246412920884 L34.223715414374226,-110.72662507007274 L34.32262545350031,-110.72861477828184 L34.42169669803551,-110.72843237305935 L34.520885292478035,-110.72607793514993 L34.62014732937921,-110.7215525067839 L34.71943886877987,-110.71485809121592 L34.818715957661105,-110.7059976518382 L34.91793464940074,-110.6949751108687 L35.01705102322707,-110.68179534761491 L35.116021203661056,-110.66646419631394 L35.214801379938564,-110.64898844354991 L35.313347825403895,-110.62937582524971 L35.41161691686611,-110.60763502325864 L35.50956515390953,-110.58377566149719 L35.607149178149925,-110.5578083017009 L35.70432579242781,-110.52974443874498 L35.801051979930335,-110.49959649555598 L35.89728492323344,-110.46737781761252 L35.99298202325563,-110.43310266703773 L36.088100918115174,-110.39678621628592 L36.18259950188231,-110.35844454142614 L36.27643594321806,-110.31809461502598 L36.369568703891616,-110.27575429863828 L36.46195655716788,-110.23144233489447 L36.55355860605716,-110.18517833920782 L36.644334301418894,-110.1369827910904 L36.73424345991137,-110.08687702508746 L36.82324628177956,-110.03488322133329 L36.91130336847313,-109.98102439573293 L36.998375740086814,-109.92532438977372 L37.08442485261557,-109.86780785997153 L37.16941261501664,-109.80850026695613 L37.25330140607123,-109.7474278642006 L37.33605409103812,-109.68461768639983 L37.41763403809198,-109.6200975375032 L37.498005134539035,-109.55389597840664 L37.577131802802946,-109.48604231430977 L37.65497901617379,-109.41656658174337 L37.731512314313235,-109.3454995352733 L37.80669781850893,-109.2728726338865 L37.880502246671504,-109.19871802706507 L37.952892928067406,-109.12306854055485 L38.02383781778113,-109.04595766183459 " />
			<path d="M38.023837817781136,-109.04595766183459 L120.6114439998077,-17.49661560302222 " />
			<path d="M120.61144399980769,-10.573233931672062 L120.69233408506496,-10.653474603461845 L120.77116533510309,-10.735895172135997 L120.84789026492477,-10.820445990625853 L120.9224626583012,-10.907076128679913 L120.99483759561103,-10.99573340354232 L121.06497148089832,-11.086364411385812 L121.13282206813304,-11.17891455948017 L121.19834848665853,-11.273328099076856 L121.26151126581048,-11.36954815898997 L121.32227235869252,-11.467516779853316 L121.38059516509429,-11.567174949032971 L121.43644455353808,-11.66846263617428 L121.4897868824406,-11.771318829361897 L121.54059002037754,-11.87568157187109 L121.58882336543824,-11.981487999488145 L121.63445786365922,-12.088674378377421 L121.67746602652512,-12.197176143472234 L121.7178219475268,-12.306927937366432 L121.75550131776647,-12.417863649683257 L121.79048144060042,-12.529916456897762 L121.82274124531064,-12.643018862588809 L121.85226129979704,-12.757102738096377 L121.87902382228262,-12.872099363559732 L121.90301269202456,-12.987939469311696 L121.92421345902474,-13.104553277604108 L121.94261335273384,-13.221870544639318 L121.95820128974393,-13.33982060288244 L121.9709678804646,-13.45833240362883 L121.980905434779,-13.577334559801157 L121.98800796667598,-13.696755388950319 L121.99227119785593,-13.81652295643427 L121.99369256030778,-13.936565118748753 L121.99227119785593,-14.05680956698386 L121.98800796667598,-14.177183870380201 L121.980905434779,-14.297615519958496 L121.9709678804646,-14.418031972196268 L121.95820128974393,-14.538360692725348 L121.94261335273384,-14.658529200023874 L121.92421345902474,-14.778465109076436 L121.90301269202456,-14.898096174976118 L121.87902382228262,-15.01735033644211 L121.85226129979704,-15.136155759226746 L121.82274124531064,-15.254440879385765 L121.79048144060042,-15.372134446385745 L121.75550131776647,-15.489165566022773 L121.7178219475268,-15.605463743126457 L121.67746602652512,-15.720958924023575 L121.63445786365922,-15.835581538735799 L121.58882336543824,-15.949262542886041 L121.54059002037754,-16.061933459288213 L121.4897868824406,-16.1735264191953 L121.43644455353808,-16.283974203180996 L121.38059516509429,-16.39321028163013 L121.32227235869252,-16.501168854813642 L121.26151126581047,-16.60778489252388 L121.19834848665853,-16.712994173246365 L121.13282206813304,-16.816733322844406 L121.06497148089832,-16.91893985273335 L120.99483759561103,-17.019552197521335 L120.9224626583012,-17.118509752094003 L120.84789026492477,-17.215752908120738 L120.77116533510309,-17.311223089960507 L120.69233408506496,-17.40486278994563 L120.61144399980769,-17.496615603022235 " />
			<path d="M120.61144399980768,-10.573233931672062 L38.02383781778113,69.22237850891844 " />
			<path d="M38.023837817781136,69.22237850891845 L37.929004154462454,69.31128670378895 L37.8316234350357,69.39721902625845 L37.7317721610816,69.48010796852313 L37.629528775030444,69.55988841363637 L37.524973598538274,69.63649768666419 L37.41818876938679,69.70987560392219 L37.30925817695652,69.77996452025539 L37.19826739632393,69.84670937432394 " />
			<path d="M37.19826739632391,69.84670937432394 L37.11365178396263,69.89458200037998 L37.02796188369595,69.94051957463543 L36.94123562755545,69.984501762074 L36.85351140633252,70.02650909326327 L36.76482805258409,70.06652297297312 L36.67522482344273,70.10452568840726 L36.584741383238864,70.14050041704405 L36.49341778594266,70.17443123408326 L36.40129445743357,70.20630311949547 L36.30841217760507,70.23610196467091 L36.21481206231284,70.26381457866486 L36.1205355451741,70.2894286940369 L36.02562435922641,70.31293297228117 L35.93012051845382,70.33431700884569 L35.834066299188684,70.35357133773796 L35.73750422139738,70.37068743571537 L35.64047702985815,70.38565772605804 L35.54302767523941,70.39847558192288 L35.44519929508696,70.40913532927695 L35.34703519472841,70.41763224940931 L35.24857882810342,70.42396258101968 L35.14987377852807,70.42812352188358 L35.05096373940198,70.43011323009267 L34.951892494866776,70.42993082487018 L34.85270390042425,70.42757638696077 L34.75344186352308,70.42305095859473 L34.65415032412241,70.41635654302675 L34.55487323524118,70.40749610364904 L34.45565454350154,70.39647356267953 L34.35653816967522,70.38329379942574 L34.25756798924123,70.36796264812477 L34.15878781296372,70.35048689536075 L34.06024136749839,70.33087427706054 L33.96197227603618,70.30913347506947 L33.86402403899276,70.28527411330802 L33.76644001475236,70.25930675351174 L33.66926340047448,70.23124289055582 L33.57253721297195,70.20109494736681 L33.476304269668844,70.16887626942335 L33.38060716964666,70.13460111884856 L33.285488274787106,70.09828466809675 L33.19098969101998,70.05994299323697 L33.097153249684226,70.01959306683682 L33.00402048901067,69.97725275044911 L32.9116326357344,69.93294078670529 L32.82003058684512,69.88667679101866 L32.72925489148339,69.83848124290124 L32.63934573299092,69.7883754768983 L32.550342911122726,69.73638167314412 L32.46228582442916,69.68252284754377 L32.375213452815466,69.62682284158456 L32.28916434028671,69.56930631178237 L32.20417657788564,69.50999871876697 L32.12028778683105,69.44892631601142 L32.03753510186416,69.38611613821067 L31.9559551548103,69.32159598931403 L31.87558405836325,69.25539443021748 L31.796457390099338,69.1875407661206 L31.71861017672849,69.1180650335542 L31.64207687858905,69.04699798708414 L31.566891374393354,68.97437108569733 L31.49308694623078,68.9002164788759 L31.42069626483488,68.82456699236569 L31.34975137512118,68.74745611364544 " />
			<path d="M31.349751375121155,68.74745611364543 L-51.23785480690539,-22.801885945166916 " />
			<path d="M-51.23785480690537,-22.801885945166894 L-51.318744892162634,-22.89363875824351 L-51.397576142200776,-22.98727845822863 L-51.47430107202246,-23.082748640068402 L-51.548873465398884,-23.179991796095138 L-51.62124840270872,-23.2789493506678 L-51.691382287996014,-23.37956169545579 L-51.75923287523073,-23.481768225344734 L-51.82475929375622,-23.585507374942775 L-51.88792207290816,-23.690716655665256 L-51.9486831657902,-23.7973326933755 L-52.00700597219198,-23.90529126655901 L-52.062855360635766,-24.01452734500814 L-52.11619768953829,-24.124975128993835 L-52.16700082747523,-24.236568088900924 L-52.215234172535936,-24.349239005303097 L-52.26086867075691,-24.46292000945334 L-52.30387683362281,-24.577542624165563 L-52.3442327546245,-24.693037805062687 L-52.38191212486417,-24.809335982166367 L-52.416892247698115,-24.926367101803397 L-52.44915205240833,-25.044060668803375 L-52.478672106894734,-25.162345788962394 L-52.50543462938032,-25.28115121174703 L-52.52942349912226,-25.400405373213022 L-52.55062426612243,-25.5200364391127 L-52.56902415983154,-25.639972348165266 L-52.584612096841624,-25.760140855463796 L-52.5973786875623,-25.880469575992876 L-52.6073162418767,-26.000886028230646 L-52.614418773773686,-26.121317677808946 L-52.61868200495363,-26.241691981205285 L-52.62010336740547,-26.36193642944039 L-52.61868200495363,-26.481978591754874 L-52.614418773773686,-26.601746159238825 L-52.6073162418767,-26.721166988387992 L-52.597378687562305,-26.840169144560317 L-52.584612096841624,-26.958680945306707 L-52.56902415983154,-27.076631003549835 L-52.55062426612244,-27.193948270585043 L-52.52942349912227,-27.310562078877453 L-52.505434629380325,-27.426402184629417 L-52.478672106894734,-27.541398810092772 L-52.44915205240834,-27.65548268560034 L-52.41689224769812,-27.768585091291385 L-52.38191212486418,-27.880637898505892 L-52.34423275462451,-27.991573610822716 L-52.30387683362282,-28.101325404716917 L-52.26086867075692,-28.20982716981173 L-52.21523417253595,-28.317013548701006 L-52.16700082747524,-28.422819976318067 L-52.1161976895383,-28.52718271882726 L-52.06285536063578,-28.630038912014875 L-52.007005972192,-28.731326599156183 L-51.948683165790214,-28.83098476833584 L-51.887922072908175,-28.928953389199187 L-51.82475929375624,-29.025173449112298 L-51.759232875230744,-29.119586988708985 L-51.69138228799603,-29.212137136803342 L-51.62124840270874,-29.302768144646834 L-51.5488734653989,-29.391425419509243 L-51.47430107202248,-29.4780555575633 L-51.3975761422008,-29.56260637605316 L-51.318744892162655,-29.645026944727313 L-51.23785480690541,-29.725267616517066 " />
			<path d="M-51.237854806905375,-29.725267616517097 L31.34975137512116,-109.52088005710762 " />
			<path d="M-1.6852910976894635,87.93721875564027 L31.34975137512115,68.74745611364543 " />
			<path d="M4.163224923513289,89.03647201631878 L4.078609311152013,89.08434464237483 L3.992919410885333,89.13028221663028 L3.9061931547448285,89.17426440406885 L3.8184689335219018,89.21627173525812 L3.7297855797734742,89.25628561496796 L3.6401823506321165,89.29428833040211 L3.5496989104282406,89.3302630590389 L3.4583753131320427,89.3641938760781 L3.36625198462295,89.39606576149032 L3.27336970479445,89.42586460666575 L3.179769589502215,89.45357722065971 L3.085493072363481,89.47919133603175 L2.9905818864157956,89.50269561427602 L2.895078045643202,89.52407965084053 L2.799023826378064,89.54333397973281 L2.702461748586761,89.56045007771021 L2.6054345570475297,89.5754203680529 L2.5079852024287907,89.58823822391773 L2.4101568222763365,89.59889797127181 L2.311992721917791,89.60739489140416 L2.213536355292802,89.61372522301453 L2.1148313057174457,89.61788616387842 L2.0159212665913593,89.61987587208752 L1.916850022056153,89.61969346686503 L1.8176614276136345,89.61733902895561 L1.7183993907124595,89.61281360058958 L1.6191078513117945,89.6061191850216 L1.5198307624305598,89.59725874564387 L1.4206120706909213,89.58623620467438 L1.3214956968645968,89.57305644142059 L1.2225255164306117,89.55772529011962 L1.1237453401531043,89.54024953735559 L1.0251988946877726,89.52063691905539 L0.9269298032255597,89.49889611706432 L0.8289815661821385,89.47503675530288 L0.7313975419417396,89.44906939550658 L0.6342209276638591,89.42100553255067 L0.537494740161329,89.39085758936166 L0.44126179685822464,89.3586389114182 L0.34556469683603774,89.32436376084341 L0.25044580197648925,89.2880473100916 L0.15594721820935753,89.24970563523182 L0.062110776873607554,89.20935570883167 L-0.03102198379995036,89.16701539244396 L-0.12340983707621711,89.12270342870013 L-0.21501188596549548,89.0764394330135 L-0.30578758132722395,89.02824388489609 L-0.39569673981970155,88.97813811889314 L-0.4846995616878953,88.92614431513897 L-0.5727566483814588,88.87228548953861 L-0.6598290199951515,88.8165854835794 L-0.7458781325239068,88.75906895377722 L-0.8308658949249779,88.69976136076181 L-0.9147546859795699,88.63868895800627 L-0.9975073709464626,88.57587878020551 L-1.0790873180003193,88.51135863130888 L-1.159458414447371,88.44515707221233 L-1.238585082711281,88.37730340811545 L-1.3164322960821293,88.30782767554905 L-1.39296559422157,88.23676062907899 L-1.4681510984172652,88.16413372769217 L-1.5419555265798395,88.08997912087075 L-1.61434620797574,88.01432963436054 L-1.68529109768944,87.93721875564029 " />
			<path d="M-84.27289727971598,-3.6121233031720545 L-51.23785480690536,-22.8018859451669 " />
			<path d="M-1.6852910976894635,87.93721875564027 L-84.272897279716,-3.612123303172069 " />
			<path d="M-84.27289727971599,-10.535504974522254 L-51.237854806905375,-29.7252676165171 " />
			<path d="M-84.27289727971598,-3.6121233031720497 L-84.35378736497326,-3.703876116248666 L-84.43261861501139,-3.797515816233786 L-84.50934354483307,-3.892985998073557 L-84.5839159382095,-3.990229154100292 L-84.65629087551933,-4.089186708672958 L-84.72642476080662,-4.189799053460948 L-84.79427534804134,-4.29200558334989 L-84.85980176656683,-4.395744732947932 L-84.92296454571878,-4.5009540136704125 L-84.98372563860082,-4.607570051380653 L-85.04204844500259,-4.715528624564166 L-85.09789783344638,-4.824764703013297 L-85.15124016234891,-4.935212486998991 L-85.20204330028585,-5.046805446906081 L-85.25027664534656,-5.1594763633082525 L-85.29591114356754,-5.273157367458496 L-85.33891930643343,-5.38777998217072 L-85.37927522743512,-5.503275163067841 L-85.41695459767479,-5.619573340171524 L-85.45193472050873,-5.736604459808552 L-85.48419452521895,-5.854298026808532 L-85.51371457970535,-5.97258314696755 L-85.54047710219093,-6.091388569752187 L-85.56446597193288,-6.210642731218178 L-85.58566673893306,-6.330273797117857 L-85.60406663264216,-6.450209706170419 L-85.61965456965224,-6.570378213468949 L-85.63242116037291,-6.690706933998031 L-85.64235871468732,-6.811123386235802 L-85.64946124658431,-6.9315550358141 L-85.65372447776424,-7.0519293392104405 L-85.6551458402161,-7.172173787445547 L-85.65372447776424,-7.292215949760031 L-85.64946124658431,-7.411983517243981 L-85.64235871468732,-7.531404346393147 L-85.63242116037293,-7.650406502565473 L-85.61965456965224,-7.768918303311861 L-85.60406663264216,-7.886868361554989 L-85.58566673893306,-8.0041856285902 L-85.56446597193289,-8.12079943688261 L-85.54047710219093,-8.236639542634574 L-85.51371457970535,-8.351636168097928 L-85.48419452521895,-8.465720043605497 L-85.45193472050875,-8.578822449296542 L-85.41695459767479,-8.690875256511047 L-85.37927522743513,-8.801810968827873 L-85.33891930643344,-8.911562762722074 L-85.29591114356754,-9.020064527816885 L-85.25027664534656,-9.127250906706163 L-85.20204330028585,-9.23305733432322 L-85.15124016234891,-9.337420076832414 L-85.0978978334464,-9.440276270020032 L-85.0420484450026,-9.541563957161339 L-84.98372563860083,-9.641222126340994 L-84.9229645457188,-9.73919074720434 L-84.85980176656685,-9.835410807117453 L-84.79427534804135,-9.92982434671414 L-84.72642476080664,-10.022374494808497 L-84.65629087551935,-10.11300550265199 L-84.58391593820951,-10.201662777514398 L-84.50934354483309,-10.288292915568459 L-84.4326186150114,-10.372843734058316 L-84.35378736497327,-10.45526430273247 L-84.27289727971603,-10.535504974522222 " />
			<path d="M-1.6852910976894688,-90.33111741511277 L31.349751375121148,-109.52088005710762 " />
			<path d="M-84.27289727971599,-10.535504974522254 L-1.6852910976894577,-90.33111741511277 " />
			<path d="M-1.6852910976894702,-90.33111741511277 L-1.5904574343707867,-90.42002560998327 L-1.493076714944034,-90.50595793245277 L-1.393225440989935,-90.58884687471745 L-1.290982054938778,-90.66862731983069 L-1.1864268784466079,-90.7452365928585 L-1.0796420492951238,-90.8186145101165 L-0.9707114568648509,-90.88870342644971 L-0.8597206762322771,-90.95544828051824 " />
			<path d="M-1.6852910976894608,87.93721875564026 L-1.7605398759861575,87.97945585201529 L-1.827963663620129,88.01420236092018 L-1.8874078458899581,88.04137860244835 L-1.938736106744357,88.06092225665876 L-1.9818307413790612,88.07278850648659 L-2.016592926154808,88.07695014051673 L-2.0308236869432763,88.07613805327223 L-2.042942945217467,88.07339761538437 L-2.052943752079209,88.06873039815589 L-2.0608203733006327,88.06213907765961 " />
			<path d="M-84.27289727971599,-3.612123303172069 L-84.34814605801269,-3.569886206797035 L-84.41556984564667,-3.5351396978921477 L-84.4750140279165,-3.5079634563639828 L-84.52634228877089,-3.488419802153577 L-84.5694369234056,-3.4765535523257416 L-84.60419910818135,-3.4723919182955947 L-84.61842986896981,-3.4732040055400972 L-84.63054912724401,-3.475944443427958 L-84.64054993410575,-3.480611660656431 L-84.64842655532716,-3.4872029811527243 " />
			<path d="M-84.272897279716,-10.53550497452225 L-84.30987023709372,-10.512547427572457 L-84.3450713431896,-10.48765934159501 L-84.3784821122817,-10.460853786470054 L-84.41008499883645,-10.432144839029089 " />
			<path d="M-1.6852910976894653,-90.33111741511279 L-1.7222640550671824,-90.30815986816299 L-1.7574651611630676,-90.28327178218554 L-1.7908759302551651,-90.25646622706059 L-1.8224788168099195,-90.22775727961962 " />
			<path d="M4.163224923513289,89.0364720163188 L37.19826739632391,69.84670937432395 " />
			<path d="M-0.8597206762322411,-90.95544828051827 L32.17532179657837,-110.14521092251312 " />
			<path d="M4.1632249165779225,89.03647202034749 L3.9929861114598832,89.13097773396089 L3.8191968174442845,89.21878355358098 L3.6421205865563113,89.29975632139896 L3.4620259554715185,89.37377324195114 L3.2791860382791036,89.44072206833866 L3.0938781123035,89.50050127245026 L2.9063831976124295,89.55302019893 L2.7169856308490568,89.59819920265639 L2.525972634034554,89.6359697695245 L2.3336338789949775,89.66627462034779 L2.1402610480730124,89.68906779772219 L1.9461473917907548,89.70431473572066 L1.7515872841343494,89.71199231231252 L1.5568757761348935,89.7120888844281 L1.3623081484225905,89.70460430561548 L1.168179463432725,89.68954992626257 L0.9747841179425258,89.66694857638424 L0.7824153966175058,89.63683453100053 L0.5913650272443172,89.59925345815842 L0.4019227383246229,89.55426234967615 L0.21437581970088937,89.50192943471494 L0.029008686880412915,89.44233407630917 L-0.1538975502817148,89.37556665101219 L-0.3340655138866093,89.30172841183992 L-0.5112219786360719,89.22093133472033 L-0.6850982861796366,89.13329794868162 L-0.8554307525358233,89.03896115003647 L-1.0219610679697506,88.93806400084448 L-1.1844366887206783,88.83075951195796 L-1.3426112199854379,88.71721041098058 L-1.4962447895769462,88.59758889549042 L-1.645104411691151,88.47207637190168 L-1.7889643402307545,88.34086318036144 L-1.9276064111498978,88.20414830609809 L-2.0608203733006434,88.0621390776596 " />
			<path d="M-2.0608203733006354,88.06213907765961 L-84.64842655532718,-3.4872029811527483 " />
			<path d="M-84.64842655293087,-3.4872029784964096 L-84.77746522038558,-3.6360367568313223 L-84.90054132757021,-3.789837742238454 L-85.01746384820026,-3.948367220385091 L-85.12805130696582,-4.111379137850371 L-85.2321320611992,-4.278620484024516 L-85.32954456728136,-4.449831683806311 L-85.42013763137356,-4.624747000489316 L-85.50377064408512,-4.803094948211509 L-85.5803137987131,-4.9845987133281735 L-85.6496482927152,-5.16897658405404 L-85.71166651210291,-5.355942387707829 L-85.7662721984692,-5.545205934880537 L-85.813380598391,-5.736473469838083 L-85.85291859497495,-5.929448126459251 L-85.88482482134197,-6.123830389001248 L-85.90904975587478,-6.319318556977754 L-85.92555579908033,-6.515609213427892 L-85.93431733194792,-6.712397695849347 L-85.93532075571248,-6.909378569064688 L-85.92856451296112,-7.1062460992869525 L-85.91405909005043,-7.3026947286487065 L-85.89182700083067,-7.498419549458062 L-85.86190275170198,-7.693116777445553 L-85.82433278805702,-7.886484223267351 L-85.77917542219319,-8.078221761532998 L-85.72650074280618,-8.268031796629682 L-85.66639050620532,-8.455619724620046 L-85.59893800941975,-8.640694390496616 L-85.52424794539226,-8.82296854008316 L-85.44243624048536,-9.00215926588156 L-85.35362987455225,-9.177988446172213 L-85.25796668385144,-9.350183176686443 L-85.15559514711127,-9.518476194180892 L-85.0466741550763,-9.682606291256494 L-84.9313727638931,-9.842318721778184 L-84.8098699327184,-9.99736559626608 L-84.68235424595689,-10.147506266644456 L-84.54902362055942,-10.292507699751347 L-84.4100849988365,-10.432144839029053 " />
			<path d="M-84.41008499883645,-10.43214483902908 L-1.8224788168099053,-90.22775727961962 " />
			<path d="M-1.822478818038154,-90.2277572784329 L-1.6961394739042044,-90.34567267385978 L-1.565800648696809,-90.45915157497551 L-1.431618048671493,-90.56805841684194 L-1.2937519719602428,-90.67226309642555 L-1.1523671170750678,-90.77164112802194 L-1.0076323861547323,-90.86607379196982 L-0.8597206831897415,-90.95544827647672 " />

       </g>
    </g>
    <g transform="translate(20,210.0)" stroke="rgb(0,0,255)">
        <line x1="30" y1="-30" x2="75" y2="-33" stroke-width="3" stroke="#000000" />
         <text x="80" y="-30" style="stroke:#000000">X </text>

        <line x1="30" y1="-30" x2="30" y2="-75" stroke-width="3" stroke="#000000" />
         <text x="25" y="-85" style="stroke:#000000">Y </text>

        <line x1="30" y1="-30" x2="58" y2="-15" stroke-width="3" stroke="#000000" />
         <text x="65" y="-5" style="stroke:#000000">Z </text>
        <!--
            <line x1="0" y1="0" x2="0.8980163183965094" y2="0" stroke-width="3" />
            <text x="0" y="20" style="stroke:#000000">1  mm </text>
        -->
    </g>
</svg>
