<?xml version="1.0" encoding="UTF-8" standalone="no"?>
<svg
   xmlns:svg="http://www.w3.org/2000/svg"
   xmlns="http://www.w3.org/2000/svg"
   width="800.0"
   height="240.0"

>
    <g transform="scale(0.9816604793117948, -0.9816604793117948)   translate(289.67228250278305,-101.54712882028122)" stroke-width="1.0186821422219854"  fill="none">
       <!-- hidden lines -->
       <g  stroke="rgb(160,160,160)" fill="none" stroke-dasharray="1.0186821422219854,1.0186821422219854" >
			<path d="M42.945555214653794,76.17348597584152 L75.98059768746441,56.98372333384667 " />
			<path d="M54.93416648939936,55.48607693648445 L42.94555521465381,76.17348597584152 " />
			<path d="M-39.64205096737271,70.29662116673062 L-6.607008494562095,51.10685852473577 " />
			<path d="M42.945555214653794,76.17348597584152 L-39.64205096737271,70.2966211667306 " />
			<path d="M-80.935854058386,-6.836352941210654 L-47.90081158557538,-26.026115583205502 " />
			<path d="M-39.64205096737271,70.29662116673062 L-80.93585405838598,-6.836352941210649 " />
			<path d="M-39.64205096737277,-78.09246224004097 L-6.607008494562152,-97.28222488203582 " />
			<path d="M-80.935854058386,-6.836352941210654 L-39.64205096737276,-78.092462240041 " />
			<path d="M-39.64205096737277,-78.09246224004097 L-18.595619769307696,-76.59481584267876 " />

       </g>

       <!-- solid lines -->
       <g  stroke="rgb(0,0,0)" fill="none">
			<path d="M84.23935830566707,4.91737667701118 L117.27440077847768,-14.272385964983666 " />
			<path d="M84.23935830566707,4.91737667701118 L54.93416648939936,55.48607693648445 " />
			<path d="M117.27440077847768,-14.272385964983663 L75.98059768746442,56.983723333846676 " />
			<path d="M75.98059768746441,56.98372333384667 L-6.607008494562095,51.10685852473576 " />
			<path d="M-6.607008494562095,51.10685852473577 L-47.900811585575376,-26.026115583205495 " />
			<path d="M-47.90081158557538,-26.0261155832055 L-6.607008494562145,-97.28222488203585 " />
			<path d="M42.94555521465374,-72.21559743093012 L75.98059768746435,-91.40536007292496 " />
			<path d="M-18.595619769307696,-76.59481584267876 L42.94555521465374,-72.2155974309301 " />
			<path d="M-6.607008494562145,-97.28222488203582 L75.98059768746435,-91.40536007292495 " />
			<path d="M42.94555521465374,-72.21559743093012 L84.23935830566705,4.917376677011191 " />
			<path d="M75.98059768746435,-91.40536007292496 L117.27440077847768,-14.272385964983656 " />
			<path d="M75.98059768746435,-96.30093020147933 L76.13500858613418,-96.28732130184093 L76.28925413774613,-96.26848467583882 L76.44316917230013,-96.24444049420391 L76.59658887372201,-96.21521450404816 L76.74934895635275,-96.18083800129384 L76.90128584086965,-96.14134779716115 L77.05223682945116,-96.09678617874978 L77.20204027999779,-96.04720086375688 L77.35053577922254,-95.99264494937974 L77.49756431442542,-95.93317685545792 L77.64296844376828,-95.86886026191593 L77.78659246486745,-95.79976404057307 L77.92828258152373,-95.72596218139384 L78.06788706841128,-95.64753371325759 L78.2052564335488,-95.56456261933239 L78.3402435783794,-95.47713774714384 L78.47270395528732,-95.38535271343483 L78.60249572238318,-95.28930580391842 L78.72947989539189,-95.18909986803102 L78.85352049648034,-95.08484220879868 L78.97448469986604,-94.97664446793426 L79.09224297405017,-94.86462250628877 L79.2066692205232,-94.74889627978453 L79.31764090879435,-94.62958971096354 L79.42503920760029,-94.50683055628801 L79.52874911215261,-94.38075026933551 L79.62865956728787,-94.25148386003531 L79.72466358638823,-94.11916975009623 L79.8166583659454,-93.98394962478133 L79.9045453956452,-93.84596828118767 L79.98823056385493,-93.70537347319403 L80.06762425840033,-93.56231575324233 " />
			<path d="M80.06762425840034,-93.56231575324233 L121.36142734941367,-16.429341645301022 " />
			<path d="M121.36142734941367,-11.533771516746661 L121.43644455353808,-11.66846263617428 L121.50700493694032,-11.805942101923556 L121.57303294179451,-11.946062697539078 L121.63445786365922,-12.088674378377423 L121.69121392718961,-12.233624432278717 L121.74324035657123,-12.380757643094642 L121.79048144060042,-12.529916456897766 L121.83288659234113,-12.68094115069425 L121.87041040329471,-12.833670003459222 L121.90301269202456,-12.9879394693117 L121.93065854718331,-13.14358435264362 L121.95331836489677,-13.300437985015432 L121.9709678804646,-13.458332403628834 L121.98358819434344,-13.617098531185553 L121.99116579238509,-13.776566356939545 L121.99369256030778,-13.936565118748756 L121.99116579238509,-14.096923485931512 L121.98358819434344,-14.257469742731693 L121.9709678804646,-14.418031972196271 L121.95331836489677,-14.57843824026829 L121.9306585471833,-14.738516779898163 L121.90301269202456,-14.898096174976121 L121.87041040329471,-15.057005543888888 L121.83288659234113,-15.215074722503985 L121.79048144060042,-15.372134446385749 L121.74324035657123,-15.528016532047934 L121.69121392718961,-15.68255405704879 L121.63445786365922,-15.835581538735802 L121.57303294179451,-15.986935111448663 L121.50700493694032,-16.136452701990713 L121.43644455353808,-16.283974203181 L121.36142734941367,-16.429341645301022 " />
			<path d="M121.36142734941366,-11.533771516746661 L80.0676242584004,59.72233778208368 " />
			<path d="M80.06762425840039,59.722337782083684 L79.99407045487337,59.844744236139455 L79.91681342285675,59.96451082822811 L79.83592444735942,60.08152704979966 L79.751478164582,60.19568493006906 L79.66355249304998,60.30687913564078 L79.57222856171843,60.41500706769979 L79.47759063511434,60.51996895667953 L79.37972603558578,60.62166795431911 L79.27872506272963,60.72001022302519 L79.17468091007231,60.81490502245586 L79.06768957908,60.906264793246656 L78.9578497905783,60.99400523780156 L78.84526289366252,61.078045398074316 L78.73003277218298,61.15830773026835 L78.61226574889145,61.2347181763864 L78.49207048733719,61.307206232563765 " />
			<path d="M78.49207048733717,61.30720623256378 L78.35042079875564,61.385933206596924 L78.20585630091165,61.459245598397644 L78.05855480367434,61.52705323598741 L77.90869748333765,61.589272718065445 L77.75646865977895,61.64582751658972 L77.60205556975143,61.69664807090408 L77.44564813658856,61.74167187329573 L77.28743873660432,61.78084354587775 L77.12762196247623,61.81411490870224 L76.96639438390235,61.841445039020115 L76.80395430582675,61.86280032161486 L76.64050152453034,61.878154490148205 L76.47623708188779,61.88748865946687 L76.31136301809217,61.890791348830774 L76.1460821231517,61.88805849603398 L75.98059768746444,61.87929346240104 " />
			<path d="M75.98059768746441,61.87929346240104 L-6.607008494562095,56.00242865329013 " />
			<path d="M-6.607008494562103,56.00242865329014 L-6.761419393231931,55.98881975365174 L-6.915664944843888,55.96998312764963 L-7.069579979397883,55.94593894601472 L-7.2229996808197665,55.91671295585896 L-7.375759763450507,55.88233645310464 L-7.527696647967403,55.842846248971945 L-7.678647636548909,55.79828463056058 L-7.82845108709554,55.748699315567684 L-7.9769465863202855,55.69414340119054 L-8.123975121523172,55.63467530726872 L-8.269379250866036,55.570358713726726 L-8.413003271965204,55.50126249238387 L-8.55469338862149,55.427460633204646 L-8.69429787550903,55.34903216506839 L-8.831667240646555,55.2660610711432 L-8.966654385477147,55.17863619895465 L-9.099114762385064,55.08685116524563 L-9.228906529480941,54.99080425572922 L-9.355890702489638,54.89059831984183 L-9.479931303578098,54.78634066060948 L-9.600895506963795,54.67814291974507 L-9.718653781147918,54.56612095809957 L-9.83308002762095,54.45039473159534 L-9.944051715892101,54.33108816277435 L-10.051450014698036,54.20832900809881 L-10.155159919250357,54.082248721146314 L-10.255070374385618,53.952982311846114 L-10.351074393485977,53.82066820190704 L-10.443069173043146,53.68544807659213 L-10.530956202742951,53.54746673299847 L-10.614641370952668,53.406871925004836 L-10.694035065498065,53.26381420505317 " />
			<path d="M-10.694035065498078,53.26381420505314 L-51.98783815651136,-23.86915990288813 " />
			<path d="M-51.987838156511366,-23.86915990288812 L-52.06285536063577,-24.014527345008155 L-52.13341574403802,-24.16204884619844 L-52.1994437488922,-24.31156643674049 L-52.26086867075692,-24.46292000945335 L-52.3176247342873,-24.615947491140364 L-52.369651163668934,-24.770485016141215 L-52.416892247698115,-24.9263671018034 L-52.45929739943882,-25.083426825685166 L-52.49682121039241,-25.241496004300267 L-52.52942349912227,-25.400405373213033 L-52.557069354281005,-25.55998476829099 L-52.57972917199447,-25.720063307920864 L-52.597378687562305,-25.880469575992883 L-52.609999001441146,-26.041031805457465 L-52.617576599482796,-26.20157806225764 L-52.62010336740547,-26.361936429440398 L-52.617576599482796,-26.52193519124961 L-52.609999001441146,-26.681403017003596 L-52.597378687562305,-26.84016914456032 L-52.57972917199448,-26.998063563173723 L-52.55706935428101,-27.154917195545533 L-52.52942349912227,-27.310562078877453 L-52.49682121039242,-27.464831544729932 L-52.459297399438825,-27.617560397494906 L-52.41689224769812,-27.768585091291392 L-52.369651163668934,-27.917743905094518 L-52.31762473428731,-28.064877115910438 L-52.26086867075692,-28.20982716981173 L-52.19944374889221,-28.352438850650078 L-52.133415744038025,-28.492559446265595 L-52.06285536063578,-28.630038912014875 L-51.987838156511394,-28.764730031442454 " />
			<path d="M-51.98783815651136,-28.7647300314425 L-10.69403506549812,-100.02083933027285 " />
			<path d="M-10.694035065498133,-100.02083933027282 L-10.620481261971115,-100.14324578432858 L-10.543224229954491,-100.26301237641724 L-10.462335254457168,-100.3800285979888 L-10.37788897167974,-100.4941864782582 L-10.289963300147722,-100.60538068382992 L-10.198639368816174,-100.71350861588894 L-10.104001442212077,-100.81847050486867 L-10.006136842683512,-100.92016950250824 L-9.905135869827383,-101.01851177121434 L-9.801091717170053,-101.113406570645 L-9.694100386177738,-101.2047663414358 L-9.584260597676032,-101.29250678599071 L-9.47167370076025,-101.37654694626346 L-9.356443579280716,-101.4568092784575 L-9.23867655598918,-101.53321972457555 L-9.11848129443494,-101.60570778075291 " />
			<path d="M-9.118481294434902,-101.60570778075292 L-8.976831605853373,-101.68443475478608 L-8.83226710800938,-101.7577471465868 L-8.684965610772078,-101.82555478417656 L-8.535108290435375,-101.8877742662546 L-8.382879466876682,-101.94432906477887 L-8.228466376849163,-101.99514961909324 L-8.072058943686297,-102.04017342148488 L-7.913849543702053,-102.07934509406691 L-7.754032769573953,-102.11261645689139 L-7.592805191000091,-102.13994658720927 L-7.430365112924476,-102.16130186980402 L-7.266912331628069,-102.17665603833736 L-7.1026478889855245,-102.18599020765602 L-6.937773825189897,-102.18929289701993 L-6.772492930249438,-102.18656004422313 L-6.60700849456215,-102.17779501059019 " />
			<path d="M-6.607008494562145,-102.17779501059019 L75.98059768746435,-96.30093020147932 " />
			<path d="M42.945555214653794,81.06905610439588 L75.98059768746441,61.87929346240104 " />
			<path d="M45.45702801452655,80.49696887455862 L45.31537832594503,80.57569584859178 L45.17081382810103,80.64900824039249 L45.02351233086373,80.71681587798226 L44.873655010527024,80.77903536006029 L44.72142618696833,80.83559015858457 L44.56701309694081,80.88641071289894 L44.41060566377795,80.93143451529058 L44.252396263793706,80.97060618787259 L44.0925794896656,81.00387755069708 L43.931351911091745,81.03120768101496 L43.768911833016126,81.05256296360972 L43.60545905171972,81.06791713214305 L43.44119460907718,81.07725130146171 L43.27632054528155,81.08055399082562 L43.11103965034109,81.07782113802882 L42.945555214653815,81.06905610439588 " />
			<path d="M-39.64205096737271,75.19219129528499 L-6.607008494562095,56.00242865329014 " />
			<path d="M42.945555214653794,81.06905610439588 L-39.64205096737271,75.19219129528497 " />
			<path d="M-43.7290775383087,72.45357684704798 L-10.694035065498085,53.26381420505314 " />
			<path d="M-39.642050967372725,75.19219129528499 L-39.796461866042556,75.17858239564659 L-39.95070741765451,75.15974576964447 L-40.10462245220851,75.13570158800957 L-40.25804215363039,75.10647559785382 L-40.410802236261134,75.07209909509949 L-40.562739120778026,75.0326088909668 L-40.71369010935953,74.98804727255543 L-40.86349355990616,74.93846195756254 L-41.01198905913091,74.88390604318539 L-41.1590175943338,74.82443794926357 L-41.30442172367666,74.76012135572158 L-41.448045744775825,74.69102513437872 L-41.58973586143211,74.61722327519949 L-41.72934034831965,74.53879480706323 L-41.866709713457176,74.45582371313805 L-42.00169685828777,74.3683988409495 L-42.13415723519569,74.27661380724048 L-42.26394900229157,74.18056689772406 L-42.39093317530026,74.08036096183667 L-42.51497377638872,73.97610330260433 L-42.63593797977442,73.86790556173992 L-42.75369625395854,73.75588360009442 L-42.868122500431575,73.64015737359018 L-42.979094188702724,73.5208508047692 L-43.08649248750866,73.39809165009365 L-43.19020239206098,73.27201136314116 L-43.29011284719624,73.14274495384096 L-43.386116866296604,73.01043084390189 L-43.47811164585377,72.87521071858697 L-43.56599867555357,72.73722937499332 L-43.64968384376329,72.59663456699968 L-43.72907753830869,72.45357684704803 " />
			<path d="M-85.02288062932197,-4.679397260893286 L-51.98783815651136,-23.869159902888132 " />
			<path d="M-43.7290775383087,72.45357684704798 L-85.02288062932197,-4.679397260893282 " />
			<path d="M-85.02288062932197,-9.574967389447657 L-51.98783815651136,-28.764730031442504 " />
			<path d="M-85.02288062932197,-4.679397260893278 L-85.09789783344638,-4.824764703013311 L-85.16845821684863,-4.972286204203596 L-85.23448622170282,-5.121803794745644 L-85.29591114356754,-5.273157367458505 L-85.35266720709791,-5.426184849145519 L-85.40469363647955,-5.580722374146371 L-85.45193472050873,-5.736604459808556 L-85.49433987224944,-5.893664183690323 L-85.53186368320303,-6.05173336230542 L-85.56446597193288,-6.210642731218187 L-85.59211182709163,-6.370222126296146 L-85.61477164480509,-6.530300665926019 L-85.63242116037291,-6.69070693399804 L-85.64504147425176,-6.85126916346262 L-85.6526190722934,-7.011815420262796 L-85.65514584021608,-7.172173787445552 L-85.6526190722934,-7.332172549254765 L-85.64504147425176,-7.491640375008752 L-85.63242116037293,-7.650406502565474 L-85.61477164480509,-7.808300921178877 L-85.59211182709163,-7.965154553550689 L-85.56446597193289,-8.12079943688261 L-85.53186368320303,-8.275068902735088 L-85.49433987224944,-8.42779775550006 L-85.45193472050875,-8.578822449296547 L-85.40469363647955,-8.727981263099672 L-85.35266720709792,-8.875114473915591 L-85.29591114356754,-9.020064527816887 L-85.23448622170282,-9.162676208655233 L-85.16845821684863,-9.302796804270752 L-85.0978978334464,-9.440276270020028 L-85.022880629322,-9.574967389447611 " />
			<path d="M-43.72907753830876,-80.83107668827799 L-10.694035065498142,-100.02083933027284 " />
			<path d="M-85.02288062932197,-9.574967389447657 L-43.72907753830874,-80.83107668827802 " />
			<path d="M-43.72907753830876,-80.83107668827797 L-43.65552373478174,-80.95348314233374 L-43.57826670276511,-81.07324973442239 L-43.49737772726779,-81.19026595599395 L-43.41293144449036,-81.30442383626335 L-43.32500577295835,-81.41561804183507 L-43.2336818416268,-81.5237459738941 L-43.139043915022704,-81.62870786287382 L-43.041179315494134,-81.7304068605134 L-42.940178342638006,-81.82874912921949 L-42.836134189980676,-81.92364392865015 L-42.72914285898836,-82.01500369944095 L-42.61930307048665,-82.10274414399586 L-42.50671617357087,-82.18678430426861 L-42.39148605209134,-82.26704663646265 L-42.2737190287998,-82.3434570825807 L-42.15352376724556,-82.41594513875806 " />
			<path d="M-39.64205096737271,75.19219129528496 L-39.68675643365393,75.2163668737637 L-39.73142914538076,75.23693788009929 L-39.77603637199721,75.25388924244028 L-39.820545430926565,75.267208540956 L-39.8649237115171,75.27688601693634 L-39.909138698935,75.28291457994158 L-39.953157997987226,75.28528981299739 L-39.996949356856575,75.28400997583117 " />
			<path d="M-43.72907753830871,72.45357684704798 L-43.87100412400576,72.53706141926554 L-43.97239884108821,72.59907277421367 L-44.03228988466752,72.63901657187529 L-44.04647643289523,72.65058512414743 L-44.049610940183086,72.654254218112 L-44.05010323658374,72.65650997595525 " />
			<path d="M-85.02288062932197,-4.6793972608932854 L-85.1648072150191,-4.595912688675689 L-85.26620193210157,-4.533901333727544 L-85.32609297568087,-4.493957536065935 L-85.34027952390853,-4.482388983793806 L-85.34341403119637,-4.478719889829248 L-85.343906327597,-4.476464131986001 " />
			<path d="M-85.02288062932199,-9.57496738944765 L-85.06110122588893,-9.551311932509769 L-85.09697636453076,-9.526112853620532 L-85.13048564801433,-9.499384480013411 L-85.16161002424136,-9.471142008420422 L-85.19033179708067,-9.441401496431844 L-85.21663463642965,-9.410179853366495 L-85.24050358749876,-9.377494830657724 L-85.26192507931441,-9.343365011760653 " />
			<path d="M42.945555214653794,81.06905610439588 L42.90084974368369,81.0932316852221 L42.8561770272783,81.11380269314715 L42.81156979600388,81.1307540563153 L42.76706073244742,81.14407335489268 L42.7226824472709,81.15375083016706 L42.678467455318284,81.15977939169773 L42.63444815179276,81.16215462251058 L42.59065678852156,81.16087478233423 " />
			<path d="M-43.729077538308786,-80.83107668827802 L-43.767298136574574,-80.80742123022002 L-43.8031732766992,-80.78222215006976 L-43.83668256144682,-80.75549377506273 L-43.86780693871666,-80.72725130193315 L-43.896528712375385,-80.69751078827365 L-43.92283155231835,-80.6662891434055 L-43.946700503754364,-80.63360411876478 L-43.96812199570835,-80.59947429780935 " />
			<path d="M45.45702801452656,80.49696887455863 L78.49207048733717,61.307206232563786 " />
			<path d="M-42.15352376724552,-82.41594513875809 L-9.1184812944349,-101.60570778075294 " />
			<path d="M-39.99694934953058,75.28400997635251 L-40.19003430303566,75.26650187594646 L-40.38229534534006,75.2415213943275 L-40.57344340556169,75.20910609048198 L-40.76319108622409,75.1693047018991 L-40.951253095368145,75.12217707129251 L-41.13734667549801,75.06779405662489 L-41.321192028716425,75.00623742457047 L-41.50251273741022,74.93759972757626 L-41.68103617985334,74.86198416470627 L-41.85649394010276,74.77950442647835 L-42.028622211570735,74.69028452392665 L-42.197162193666834,74.59445860214691 L-42.36186048091323,74.4921707386049 L-42.5224694439483,74.38357472651106 L-42.67874760184559,74.26883384358732 L-42.830459985188455,74.14812060657366 L-42.977378489354386,74.02161651184336 L-43.11928221747794,73.8895117625172 L-43.25595781257648,73.75200498248674 L-43.38719977833959,73.60930291777665 L-43.51281078809954,73.46162012569519 L-43.63260198151855,73.30917865224016 L-43.746393248546596,73.15220769824536 L-43.85401350022285,72.99094327476942 L-43.95530092591367,72.8256278482454 L-44.05010323660023,72.65650997592442 " />
			<path d="M-85.34390632757889,-4.476464131952186 L-85.43279811511738,-4.650604979841759 L-85.51481375414811,-4.82808799240879 L-85.58982783690375,-5.008641785456227 L-85.65772566149639,-5.191990279344438 L-85.71840340730486,-5.377853121136684 L-85.77176829372394,-5.565946113278779 L-85.81773872203246,-5.755981648157437 L-85.85624440016365,-5.947669147872846 L-85.88722645018663,-6.140715508553021 L-85.91063749833506,-6.334825548530552 L-85.92644174744498,-6.529702459696444 L-85.9346150316912,-6.725048261340907 L-85.93514485353857,-6.920564255787134 L-85.9280304028517,-7.115951485121375 L-85.9132825581336,-7.310911188320928 L-85.8909238698917,-7.505145258081072 L-85.86098852615655,-7.698356696642421 L-85.82352230020588,-7.890250069921699 L-85.77858248057393,-8.080531959251543 L-85.72623778345327,-8.2689114100386 L-85.66656824762276,-8.455100376653862 L-85.59966511206262,-8.638814162875008 L-85.52563067644346,-8.819771857207243 L-85.44457814470277,-8.997696762417034 L-85.35663145194809,-9.172316818621933 L-85.26192507495132,-9.343365019289559 " />
			<path d="M45.45702805092755,80.4969688534136 L45.282924602093715,80.59352040406249 L45.10511556142946,80.68306457130187 L44.92388282178919,80.76545939462846 L44.7395137038519,80.84057424788374 L44.55230050061194,80.90829004634446 L44.362540013986994,80.96849943551591 L44.17053308427758,81.02110696132831 L43.97658411322437,81.06602922146668 L43.78100058141923,81.10319499759423 L43.58409256083517,81.13254536825977 L43.386172223248,81.15403380230975 L43.187553345329064,81.16762623265747 L42.988550811193505,81.1733011102918 L42.789480113192994,81.17104943844046 L42.59065685174402,81.16087478683309 " />
			<path d="M-85.26192508672155,-9.343364998978975 L-43.96812199570835,-80.59947429780932 " />
			<path d="M42.59065680883098,81.16087478377943 L-39.99694937319553,75.2840099746685 " />
			<path d="M-43.9681220074788,-80.5994742774983 L-43.86454648128647,-80.77024707736055 L-43.75423333201925,-80.93674707104692 L-43.637358580804325,-81.09870858291706 L-43.51410871878612,-81.25587317915713 L-43.384680409551734,-81.40799008014956 L-43.24928017532482,-81.55481656062943 L-43.10812406742844,-81.69611833698897 L-42.961437321542924,-81.83166994111201 L-42.809453998308626,-81.96125508014218 L-42.65241660984715,-82.08466698161044 L-42.490575732797055,-82.20170872337152 L-42.324189608481284,-82.31219354782262 L-42.153523730844555,-82.41594515990309 " />
			<path d="M-44.05010323658293,72.65650997595675 L-85.34390632759624,-4.476464131984528 " />

       </g>
    </g>
    <g transform="translate(20,210.0)" stroke="rgb(0,0,255)">
        <line x1="30" y1="-30" x2="75" y2="-33" stroke-width="3" stroke="#000000" />
         <text x="80" y="-30" style="stroke:#000000">X </text>

        <line x1="30" y1="-30" x2="30" y2="-75" stroke-width="3" stroke="#000000" />
         <text x="25" y="-85" style="stroke:#000000">Y </text>

        <line x1="30" y1="-30" x2="58" y2="-15" stroke-width="3" stroke="#000000" />
         <text x="65" y="-5" style="stroke:#000000">Z </text>
        <!--
            <line x1="0" y1="0" x2="0.9816604793117948" y2="0" stroke-width="3" />
            <text x="0" y="20" style="stroke:#000000">1  mm </text>
        -->
    </g>
</svg>
