<?xml version="1.0" encoding="UTF-8" standalone="no"?>
<svg
   xmlns:svg="http://www.w3.org/2000/svg"
   xmlns="http://www.w3.org/2000/svg"
   width="800.0"
   height="240.0"

>
    <g transform="scale(0.937228726491484, -0.937228726491484)   translate(283.5581057968406,-108.67543882248407)" stroke-width="1.066975404972381"  fill="none">
       <!-- hidden lines -->
       <g  stroke="rgb(160,160,160)" fill="none" stroke-dasharray="1.066975404972381,1.066975404972381" >
			<path d="M27.172725958632196,82.33593072303645 L60.207768431442815,63.14616808104161 " />
			<path d="M45.687150147789914,57.21862677906505 L27.1727259586322,82.33593072303644 " />
			<path d="M-65.16302480236439,44.643047018422365 L-32.127982329553774,25.45328437642752 " />
			<path d="M27.172725958632196,82.33593072303645 L-65.1630248023644,44.64304701842237 " />
			<path d="M-65.1630248023644,-56.070990291051466 L-32.12798232955379,-75.26075293304632 " />
			<path d="M-65.16302480236439,44.643047018422365 L-65.16302480236442,-56.07099029105146 " />
			<path d="M-65.1630248023644,-56.070990291051466 L-32.1279823295538,-64.85491448080452 " />

       </g>

       <!-- solid lines -->
       <g  stroke="rgb(0,0,0)" fill="none">
			<path d="M84.23935830566707,4.91737667701118 L117.27440077847768,-14.272385964983666 " />
			<path d="M84.23935830566707,4.91737667701118 L45.687150147789914,57.21862677906505 " />
			<path d="M117.27440077847768,-14.272385964983663 L60.207768431442815,63.1461680810416 " />
			<path d="M60.207768431442815,63.14616808104161 L-32.12798232955379,25.453284376427526 " />
			<path d="M-32.127982329553774,25.453284376427522 L-32.1279823295538,-75.2607529330463 " />
			<path d="M27.172725958632178,-80.62280478791722 L60.207768431442794,-99.81256742991206 " />
			<path d="M-32.1279823295538,-64.85491448080452 L27.172725958632185,-80.62280478791723 " />
			<path d="M-32.12798232955379,-75.2607529330463 L60.2077684314428,-99.81256742991206 " />
			<path d="M27.172725958632178,-80.62280478791722 L84.23935830566705,4.917376677011191 " />
			<path d="M60.2077684314428,-99.81256742991206 L117.27440077847768,-14.272385964983656 " />
			<path d="M58.749427069443286,-104.57230565020556 L58.9267617471383,-104.61548989714134 L59.1060716442913,-104.65126838575543 L59.28708027803751,-104.67958594821164 L59.469508546183455,-104.70039892088117 L59.653075157562334,-104.71367521166871 L59.837497065764566,-104.71939434949618 L60.02248990557487,-104.71754751586755 L60.2077684314428,-104.70813755846643 L60.39304695731074,-104.69117898676508 L60.57803979712104,-104.66669794965188 L60.762461705323275,-104.63473219511164 L60.94602831670215,-104.59533101202094 L61.1284565848481,-104.54855515414823 L61.30946521859431,-104.49447674647601 L61.48877511574731,-104.43317917398919 L61.666109793442324,-104.36475695310163 L61.84119581445983,-104.28931558591859 L62.013763208845894,-104.20697139756017 L62.18354589018632,-104.11785135679638 L62.35028206589258,-104.02209288027055 L62.51371464086699,-103.91984362061275 L62.67359161392479,-103.81126123877021 L62.82966646636163,-103.69651316090551 L62.98169854206759,-103.57577632023764 L63.12945341860143,-103.4492368842237 L63.27270326865302,-103.31708996750227 L63.411227211336545,-103.17953933104073 L63.54481165277279,-103.03679706795064 L63.67325061543547,-102.88908327645554 L63.79634605575359,-102.73662572051538 L63.91390816948032,-102.57965947863107 L64.02575568435735,-102.41842658137048 " />
			<path d="M64.02575568435736,-102.41842658137047 L121.09238803139225,-16.87824511644206 " />
			<path d="M121.09238803139226,-11.123157270186425 L121.19834848665853,-11.27332809907686 L121.2982584989722,-11.428123257820472 L121.3919640143359,-11.587304063502256 L121.47932054563684,-11.750625070857508 L121.56019339543548,-11.917834450730624 L121.63445786365922,-12.088674378377423 L121.70199943988085,-12.262881431012193 L121.76271397988535,-12.440186993986554 L121.81650786625272,-12.620317674973762 L121.86329815270922,-12.802995725519867 L121.90301269202456,-12.987939469311696 L121.93559024725772,-13.174863736501312 L121.96098058617976,-13.36348030341725 L121.9791445587284,-13.553498336984527 L121.99005415737453,-13.744624843168163 L121.99369256030778,-13.93656511874875 L121.99005415737453,-14.129023205733452 L121.9791445587284,-14.321702347701775 L121.96098058617976,-14.51430544738247 L121.93559024725772,-14.706535524755981 L121.90301269202457,-14.89809617497611 L121.86329815270922,-15.088692025404814 L121.81650786625272,-15.27802919105539 L121.76271397988536,-15.46581572774184 L121.70199943988085,-15.651762082235628 L121.63445786365922,-15.835581538735791 L121.56019339543549,-16.016990660963906 L121.47932054563684,-16.195709729202285 L121.39196401433591,-16.37146317160153 L121.29825849897222,-16.54397998909232 L121.19834848665855,-16.712994173246354 L121.09238803139226,-16.878245116442052 " />
			<path d="M121.09238803139225,-11.123157270186422 L64.02575568435738,66.29539677583884 " />
			<path d="M64.02575568435736,66.29539677583887 L63.95856902415784,66.3841793477688 L63.889252117604045,66.47112290919272 L63.817844332847905,66.55617808099802 L63.74438622554396,66.63929655657255 L63.66891951581607,66.72043112923993 L63.59148706456268,66.7995357190705 L63.51213284911418,66.87656539905201 L63.430901938256305,66.95147642060577 L63.34784046663348,67.02422623843333 L63.26299560854696,67.09477353467993 L63.176415551162435,67.16307824240067 L63.088149467142394,67.22910156831635 L62.99824748671877,67.29280601484592 L62.90676066922178,67.35415540140293 L62.813740974081064,67.41311488494422 L62.71924123131559,67.46965097975871 " />
			<path d="M62.71924123131557,67.46965097975871 L62.60902241256595,67.53151296743009 L62.49700701025292,67.59009390336573 L62.38327883268342,67.64534995815505 L62.267922969638086,67.69723979001556 L62.15102572870833,67.74572457572417 L62.03267457072225,67.79076803966413 L61.91295804430769,67.83233648096599 L61.79196571964146,67.87039879872208 L61.66978812143419,67.90492651525572 L61.546516661201046,67.93589379742787 L61.42224356886901,67.96327747596504 L61.2970618237717,67.98705706279428 L61.17106508508364,68.007214766372 L61.04434762174579,68.02373550499541 L60.91700424193489,68.03660691808636 L60.78913022212933,68.0458193754394 L60.660821235824706,68.0513659844269 L60.53217328195227,68.05324259515612 L60.40328261305388,68.05144780357399 L60.27424566326732,68.04598295251768 L60.1451589761756,68.03685213070982 L60.01611913257446,68.0240621696995 L59.88722267821202,68.00762263875092 L59.758566051554645,67.98754583768378 L59.63024551163307,67.96384678767083 L59.502357066022796,67.93654321999914 L59.37499639901257,67.90565556280387 L59.24825880001485,67.87120692578426 L59.12223909227158,67.83322308291321 L58.99703156190881,67.7917324531536 L58.87272988739325,67.74676607919564 L58.74942706944333,67.69835760423119 " />
			<path d="M58.74942706944329,67.69835760423118 L-33.58632369155331,30.005473899617094 " />
			<path d="M-33.586323691553304,30.00547389961709 L-33.76140971257081,29.930032532434048 L-33.93397710695688,29.84768834407562 L-34.10375978829731,29.75856830331184 L-34.27049596400356,29.662809826786003 L-34.433928538977966,29.560560567128206 L-34.59380551203577,29.451978185285665 L-34.74988036447262,29.33723010742097 L-34.90191244017857,29.21649326675309 L-35.04966731671241,29.089953830739148 L-35.192917166764005,28.957806914017716 L-35.33144110944753,28.82025627755618 L-35.46502555088378,28.6775140144661 L-35.59346451354645,28.52980022297099 L-35.716559953864575,28.377342667030824 L-35.8341220675913,28.22037642514652 L-35.945969582468344,28.059143527885922 L-36.05193003773463,27.893892584690217 L-36.1518400500483,27.72487840053618 L-36.245545565411994,27.55236158304539 L-36.33290209671293,27.376608140646148 L-36.41377494651157,27.19788907240777 L-36.48803941473531,27.016479950179654 L-36.55558099095695,26.83266049367949 L-36.616295530961445,26.6467141391857 L-36.67008941732881,26.458927602499248 L-36.71687970378531,26.269590436848677 L-36.75659424310066,26.078994586419977 L-36.789171798333804,25.887433936199844 L-36.81456213725585,25.695203858826332 L-36.83272610980449,25.502600759145636 L-36.84363570845062,25.30992161717731 L-36.84727411138386,25.117463530192655 " />
			<path d="M-36.847274111383854,25.117463530192612 L-36.84727411138388,-75.59657377928121 " />
			<path d="M-36.847274111383875,-75.59657377928121 L-36.844925355665836,-75.7508412914079 L-36.83788142642753,-75.90462097701854 L-36.82614933508924,-76.0577597661473 L-36.80974075959669,-76.210105226767 L-36.78867203279695,-76.36150571651761 L-36.762964126181025,-76.51181053364874 L-36.7326426290091,-76.66087006702593 L-36.697737722839406,-76.80853594505126 L-36.65828415148595,-76.95466118335023 L-36.61432118643505,-77.0991003310777 L-36.56589258775508,-77.24170961569752 L-36.51304656053839,-77.38234708609156 L-36.45583570691866,-77.52087275385557 L-36.394316973711554,-77.65714873264169 L-36.328551595730715,-77.79103937540825 L-36.25860503483555,-77.9224114094409 L-36.1845469147715,-78.05113406901022 L-36.10645095186766,-78.17707922553393 L-36.024394881660555,-78.30012151511411 L-35.938460381517494,-78.42013846332262 L-35.84873298933607,-78.5370106071101 L-35.755302018401075,-78.65062161371793 L-35.658260468483384,-78.76085839647388 L-35.55770493326943,-78.86761122735695 L-35.45373550421328,-78.970773846219 L-35.34645567090713,-79.07024356655445 L-35.235972218069364,-79.1659213777129 L-35.1223951192526,-79.25771204345278 L-35.00583742737778,-79.34552419673811 L-34.886415162202894,-79.42927043068384 L-34.76424719483878,-79.50886738555934 L-34.63945512942658,-79.58423583176341 " />
			<path d="M-34.639455129426544,-79.58423583176342 L-34.51491383076102,-79.6538248222347 L-34.3880972567018,-79.71922624034912 L-34.25912629158525,-79.78037774404227 L-34.12812387336049,-79.83722104236129 L-33.99521487640222,-79.88970195102905 L-33.86052599247779,-79.9377704440938 L-33.72418560998176,-79.98138070161498 L-33.58632369155332,-80.02049115333982 " />
			<path d="M-33.58632369155332,-80.0204911533398 L58.74942706944327,-104.57230565020556 " />
			<path d="M25.714384596632673,86.88812024622602 L58.749427069443286,67.69835760423118 " />
			<path d="M29.68419875850496,86.65941362175356 L29.573979939755333,86.72127560942494 L29.46196453744231,86.77985654536057 L29.348236359872807,86.8351126001499 L29.23288049682747,86.8870024320104 L29.115983255897714,86.93548721771901 L28.997632097911634,86.98053068165898 L28.877915571497077,87.02209912296084 L28.756923246830848,87.06016144071694 L28.63474564862357,87.09468915725057 L28.511474188390434,87.12565643942271 L28.38720109605839,87.15304011795989 L28.262019350961083,87.17681970478912 L28.136022612273024,87.19697740836685 L28.009305148935177,87.21349814699026 L27.881961769124274,87.22636956008121 L27.754087749318714,87.23558201743424 L27.62577876301409,87.24112862642174 L27.497130809141648,87.24300523715097 L27.368240140243266,87.24121044556884 L27.239203190456706,87.23574559451251 L27.110116503364985,87.22661477270466 L26.981076659763843,87.21382481169435 L26.852180205401403,87.19738528074576 L26.72352357874403,87.17730847967863 L26.595203038822454,87.15360942966566 L26.467314593212176,87.12630586199398 L26.339953926201957,87.09541820479872 L26.213216327204236,87.06096956777911 L26.08719661946096,87.02298572490805 L25.961989089098196,86.98149509514845 L25.837687414582632,86.93652872119048 L25.714384596632716,86.88812024622604 " />
			<path d="M-66.62136616436392,49.19523654161193 L-33.586323691553304,30.005473899617087 " />
			<path d="M25.714384596632673,86.88812024622602 L-66.62136616436393,49.19523654161194 " />
			<path d="M-69.88231658419447,44.307226172187455 L-36.847274111383854,25.11746353019261 " />
			<path d="M-66.62136616436392,49.19523654161193 L-66.79645218538143,49.119795174428894 L-66.96901957976749,49.03745098607047 L-67.13880226110793,48.94833094530668 L-67.30553843681417,48.85257246878085 L-67.46897101178858,48.75032320912305 L-67.62884798484639,48.64174082728051 L-67.78492283728323,48.52699274941582 L-67.9369549129892,48.40625590874793 L-68.08470978952303,48.27971647273399 L-68.22795963957462,48.147569556012556 L-68.36648358225814,48.01001891955102 L-68.5000680236944,47.867276656460945 L-68.62850698635707,47.71956286496583 L-68.75160242667519,47.56710530902566 L-68.86916454040193,47.410139067141365 L-68.98101205527897,47.24890616988077 L-69.08697251054525,47.08365522668506 L-69.18688252285892,46.914641042531024 L-69.28058803822262,46.742124225040236 L-69.36794456952354,46.566370782640995 L-69.4488174193222,46.387651714402615 L-69.52308188754593,46.2062425921745 L-69.59062346376756,46.02242313567433 L-69.65133800377207,45.836476781180544 L-69.70513189013943,45.64869024449409 L-69.75192217659593,45.45935307884352 L-69.79163671591127,45.26875722841482 L-69.82421427114443,45.07719657819469 L-69.84960461006646,44.88496650082118 L-69.8677685826151,44.69236340114048 L-69.87867818126124,44.499684259172156 L-69.88231658419448,44.3072261721875 " />
			<path d="M-69.8823165841945,-56.40681113728637 L-36.84727411138388,-75.59657377928121 " />
			<path d="M-69.88231658419447,44.307226172187455 L-69.8823165841945,-56.40681113728637 " />
			<path d="M-69.88231658419448,-56.406811137286375 L-69.87996782847645,-56.56107864941305 L-69.87292389923815,-56.714858335023685 L-69.86119180789986,-56.86799712415245 L-69.84478323240731,-57.02034258477216 L-69.82371450560757,-57.17174307452276 L-69.79800659899165,-57.322047891653895 L-69.76768510181972,-57.47110742503108 L-69.73278019565002,-57.618773303056415 L-69.69332662429656,-57.76489854135537 L-69.64936365924567,-57.90933768908284 L-69.6009350605657,-58.05194697370267 L-69.548089033349,-58.1925844440967 L-69.49087817972928,-58.33111011186073 L-69.42935944652217,-58.46738609064683 L-69.36359406854133,-58.60127673341339 L-69.29364750764616,-58.73264876744605 L-69.21958938758212,-58.86137142701538 L-69.14149342467827,-58.987316583539084 L-69.05943735447117,-59.110358873119274 L-68.97350285432812,-59.23037582132776 L-68.88377546214669,-59.34724796511526 L-68.79034449121168,-59.460858971723084 L-68.69330294129401,-59.571095754479025 L-68.59274740608005,-59.6778485853621 L-68.48877797702389,-59.78101120422416 L-68.38149814371775,-59.880480924559606 L-68.27101469087998,-59.97615873571805 L-68.15743759206322,-60.06794940145793 L-68.04087990018839,-60.15576155474326 L-67.92145763501351,-60.23950778868899 L-67.79928966764939,-60.319104743564495 L-67.6744976022372,-60.39447318976856 " />
			<path d="M-69.88231658419447,-56.406811137286375 L-69.94763045064056,-56.36614627778229 L-70.00447158747009,-56.32495874680764 L-70.05273933861676,-56.283321480532955 L-70.09234823003428,-56.24130821153414 L-70.1232281210565,-56.19899333822451 L-70.14532432860473,-56.15645179310773 L-70.1530657136927,-56.135119548430126 L-70.15859772402221,-56.113758910085004 L-70.16191791025783,-56.09237933564116 L-70.16302480236439,-56.07099029105147 " />
			<path d="M-69.88231658419447,44.307226172187455 L-69.94763045064056,44.34789103169154 L-70.00447158747009,44.38907856266619 L-70.05273933861676,44.430715828940876 L-70.09234823003428,44.47272909793969 L-70.1232281210565,44.51504397124932 L-70.14532432860473,44.5575855163661 L-70.1530657136927,44.578917761043705 L-70.15859772402221,44.60027839938883 L-70.16191791025783,44.62165797383267 L-70.16302480236439,44.64304701842236 " />
			<path d="M25.714384596632673,86.88812024622602 L25.652021641676594,86.92161265796129 L25.591902709692814,86.94833822127579 L25.534116515011227,86.96825749866852 L25.478748329664608,86.98134109631481 L25.425879857557163,86.98756970744125 L25.375589113898428,86.98693414081566 L25.327950310080322,86.97943533431011 L25.283033744167348,86.96508435351697 " />
			<path d="M-66.6213661643639,49.19523654161193 L-66.68372911922538,49.22872895330068 L-66.74384805112162,49.25545451658963 L-66.80163424572314,49.27537379397794 L-66.85700243099754,49.288457391641046 L-66.90987090304098,49.294686002805555 L-66.96016164664427,49.294050436239274 L-67.00780045041579,49.28655162981417 L-67.05271701629133,49.27220064912247 " />
			<path d="M29.68419875850496,86.65941362175354 L62.71924123131558,67.4696509797587 " />
			<path d="M-67.67449760223717,-60.39447318976858 L-34.63945512942655,-79.58423583176344 " />
			<path d="M-70.1630248023644,44.64304701842237 L-70.16302480236439,-56.07099029105145 " />
			<path d="M29.684198721399834,86.6594136433076 L29.510484493186496,86.75575934348302 L29.333080428534306,86.84512894049973 L29.15226653582415,86.9273813765065 L28.96832820539045,87.00238682713052 L28.781555759071026,87.07002690638761 L28.59224399197325,87.13019485353861 L28.400691707179735,87.18279570159673 L28.207201244128,87.22774642722017 L28.01207800140844,87.26497608175323 L27.815629954733858,87.29442590320922 L27.618167170841367,87.3160494090183 L27.420001318093867,87.329812469394 L27.221445174553594,87.33569336120239 L27.022812134304132,87.3336828022492 L26.824415712800157,87.32378396593047 L26.62656905202557,87.30601247622381 L26.429584426241142,87.28039638302799 L26.233772749101714,87.24697611789001 L26.03944308292094,87.2058044301894 L25.846902150858128,87.15694630388033 L25.656453852797124,87.10047885492331 L25.468398785681327,87.03649120956796 L25.283033769061987,86.96508436367935 " />
			<path d="M-67.05271703519273,49.27220064140662 L-67.23377820495857,49.194088695406286 L-67.41161855608372,49.10889812775577 L-67.5859614783657,49.01676144258036 L-67.75653580145017,48.91782194789187 L-67.92307621660517,48.81223353268956 L-68.08532368937837,48.700160427603436 L-68.24302586249533,48.581776949452454 L-68.39593744837221,48.45726723011475 L-68.54382061063238,48.3268249301317 L-68.68644533403354,48.190652937491215 L-68.82358978222993,48.04896305205884 L-68.95504064281332,47.90197565614741 L-69.08059345909582,47.749919371737754 L-69.20005294811878,47.593030704883496 L-69.313233304393,47.43155367785309 L-69.41995848889766,47.26573944958127 L-69.52006250288895,47.095845925020235 L-69.6133896460918,46.922137353998174 L-69.69979475887396,46.744883920209034 L-69.77914344802491,46.56436132097292 L-69.85131229578916,46.38085033842061 L-69.91618905182833,46.19463640276925 L-69.97367280781361,46.00600914836851 L-70.02367415437713,45.8152619632077 L-70.06611532017783,45.62269153258448 L-70.10093029286593,45.42859737764502 L-70.12806492175747,45.233281389513344 L-70.14747700205956,45.03704735973441 L-70.15913634051498,44.84020050776131 L-70.16302480236439,44.643047006221565 " />
			<path d="M-70.1630248023644,-56.07099027885061 L-70.15928358112055,-56.26437647386234 L-70.14806551514046,-56.45747326863942 L-70.12938739213294,-56.64999169601308 L-70.10327716369778,-56.84164365433487 L-70.06977390349641,-57.03214233861743 L-70.02892774877868,-57.221202669735014 L-69.980799825353,-57.40854172104105 L-69.92546215611229,-57.59387914176475 L-69.86299755325247,-57.776937576552875 L-69.79349949434504,-57.95744308052882 L-69.71707198244884,-58.13512552924807 L-69.63382939047078,-58.30971902293637 L-69.54389629000795,-58.480962284405706 L-69.44740726492773,-58.64859905005269 L-69.3445067099645,-58.812378453354114 L-69.23534861463457,-58.97205540028589 L-69.12009633279264,-59.12739093610348 L-68.99892233817452,-59.27815260293495 L-68.87200796629227,-59.42411478765156 L-68.73954314306752,-59.56505905949525 L-68.60172610060957,-59.7007744969578 L-68.45876308056322,-59.831058003422505 L-68.31086802547053,-59.95571461109592 L-68.15826225860822,-60.074557772774995 L-68.00117415277985,-60.18740964101283 L-67.83983878855857,-60.29410133426538 L-67.67449760249161,-60.39447318962077 " />
			<path d="M25.283033743102834,86.9650843530824 L-67.05271701789376,49.27220064846834 " />

       </g>
    </g>
    <g transform="translate(20,210.0)" stroke="rgb(0,0,255)">
        <line x1="30" y1="-30" x2="75" y2="-33" stroke-width="3" stroke="#000000" />
         <text x="80" y="-30" style="stroke:#000000">X </text>

        <line x1="30" y1="-30" x2="30" y2="-75" stroke-width="3" stroke="#000000" />
         <text x="25" y="-85" style="stroke:#000000">Y </text>

        <line x1="30" y1="-30" x2="58" y2="-15" stroke-width="3" stroke="#000000" />
         <text x="65" y="-5" style="stroke:#000000">Z </text>
        <!--
            <line x1="0" y1="0" x2="0.937228726491484" y2="0" stroke-width="3" />
            <text x="0" y="20" style="stroke:#000000">1  mm </text>
        -->
    </g>
</svg>
